<svg width="106" height="36" viewBox="0 0 106 36" fill="none" xmlns="http://www.w3.org/2000/svg">
<g filter="url(#filter0_d_602_334)">
<g opacity="0.8">
<rect x="4" width="97.7778" height="28" rx="8" fill="white"/>
<path d="M28.7431 15.132C27.7078 10.8665 28.5996 7.06362 30.7965 5.85266C29.4847 6.51447 28.3595 7.51723 27.5203 8.75032C26.2104 10.8434 25.8851 14.1343 27.2199 17.2482C28.524 20.2917 30.8291 22.1725 32.7782 22.8383C33.3369 22.958 33.9158 23.0214 34.5081 23.0214C34.6201 23.0214 34.732 23.0174 34.843 23.0123C33.0719 22.429 30.0598 20.5552 28.7431 15.132Z" fill="#006A44"/>
<path d="M36.3645 10.8726C37.55 7.82406 40.099 7.36944 41.209 8.35109C39.9565 6.70965 38.17 5.53892 36.1262 5.12957C34.8574 5.07928 32.3658 6.67646 31.8778 11.115C31.2693 16.6518 33.7025 21.2513 36.1693 22.8515C36.6936 22.7428 37.1988 22.5849 37.684 22.3818C35.8181 20.1992 34.6603 15.2538 36.3645 10.8726Z" fill="#006A44"/>
<path d="M27.2199 17.2481C25.8851 14.1342 26.2105 10.8433 27.5204 8.75024C26.5138 10.2287 25.9205 12.0381 25.9205 13.9944C25.9205 18.3575 28.8647 21.9964 32.7782 22.8382C30.8291 22.1724 28.5241 20.2916 27.2199 17.2481Z" fill="#F78222"/>
<path d="M31.8778 11.1149C32.3658 6.67636 34.8574 5.07917 36.1262 5.12946C35.6018 5.02486 35.0612 4.96753 34.5082 4.96753C33.1781 4.96753 31.9199 5.28536 30.7966 5.85262C28.5997 7.06358 27.7079 10.8664 28.7432 15.132C30.0598 20.5552 33.0719 22.4289 34.8431 23.0123C35.2947 22.9942 35.7377 22.9399 36.1692 22.8514C33.7025 21.2512 31.2692 16.6517 31.8778 11.1149Z" fill="#F78222"/>
<path d="M44.9004 11.4186L45.0554 10.8131C45.0698 10.7548 45.1109 10.5698 45.1109 10.5698H45.1176C45.1176 10.5698 45.1626 10.7498 45.1808 10.8262L45.3319 11.4186H45.5157L45.8046 10.3223H45.6066L45.4783 10.9178C45.464 10.9892 45.4305 11.1752 45.4305 11.1752H45.4228C45.4228 11.1752 45.3941 11.0284 45.3645 10.9107L45.22 10.3223H45.0238L44.8669 10.9278C44.843 11.0213 44.82 11.1752 44.82 11.1752H44.8133C44.8133 11.1752 44.7827 11.0173 44.7598 10.9087L44.6277 10.2992L44.4363 10.3314L44.7186 11.4186H44.9004Z" fill="#636468"/>
<path d="M46.4218 11.4186L46.5768 10.8131C46.5911 10.7548 46.6323 10.5698 46.6323 10.5698H46.639C46.639 10.5698 46.6839 10.7498 46.7021 10.8262L46.8533 11.4186H47.037L47.326 10.3223H47.1279L46.9997 10.9178C46.9854 10.9892 46.9519 11.1752 46.9519 11.1752H46.9442C46.9442 11.1752 46.9155 11.0284 46.8868 10.9107L46.7414 10.3223H46.5462L46.3892 10.9278C46.3644 11.0213 46.3414 11.1752 46.3414 11.1752H46.3357C46.3357 11.1752 46.3041 11.0173 46.2811 10.9087L46.1491 10.2992L45.9577 10.3314L46.24 11.4186H46.4218Z" fill="#636468"/>
<path d="M47.9431 11.4186L48.0981 10.8131C48.1125 10.7548 48.1536 10.5698 48.1536 10.5698H48.1603C48.1603 10.5698 48.2053 10.7498 48.2244 10.8262L48.3747 11.4186H48.5584L48.8474 10.3223H48.6493L48.5211 10.9178C48.5067 10.9892 48.4742 11.1752 48.4742 11.1752H48.4656C48.4656 11.1752 48.4369 11.0284 48.4082 10.9107L48.2637 10.3223H48.0675L47.9106 10.9278C47.8857 11.0213 47.8628 11.1752 47.8628 11.1752H47.857C47.857 11.1752 47.8254 11.0173 47.8034 10.9087L47.6714 10.2992L47.4791 10.3314L47.7623 11.4186H47.9431Z" fill="#636468"/>
<path d="M49.1191 11.4407C49.2033 11.4407 49.2655 11.3663 49.2655 11.2778C49.2655 11.1883 49.2033 11.1149 49.1191 11.1149C49.034 11.1149 48.9727 11.1883 48.9727 11.2778C48.9727 11.3663 49.034 11.4407 49.1191 11.4407Z" fill="#636468"/>
<path d="M50.4539 11.4096L49.9936 10.783L50.363 10.3203H50.1314L49.7908 10.791L50.2166 11.4096H50.4539Z" fill="#636468"/>
<path d="M49.5803 11.4095H49.7697V10.0558C49.7697 9.96724 49.7582 9.87572 49.7458 9.81738L49.5535 9.86465C49.5697 9.92802 49.5803 10.0014 49.5803 10.1121V11.4095Z" fill="#636468"/>
<path d="M50.9983 11.4337C51.1333 11.4337 51.2548 11.3884 51.3553 11.2949L51.2835 11.1752C51.2089 11.2446 51.1266 11.2798 51.0299 11.2798C50.9304 11.2798 50.8462 11.2386 50.7926 11.1521C50.7611 11.0998 50.7486 11.0283 50.7486 10.9348V10.9087H51.3782V10.8735C51.3763 10.624 51.3438 10.5033 51.2529 10.4048C51.1801 10.3273 51.0873 10.2881 50.9716 10.2881C50.8443 10.2881 50.7429 10.3354 50.6596 10.4379C50.5716 10.5486 50.5362 10.6703 50.5362 10.8584C50.5362 11.2144 50.7113 11.4337 50.9983 11.4337ZM50.9677 10.44C51.0338 10.44 51.0835 10.4721 51.116 10.5164C51.1572 10.5697 51.1801 10.6572 51.1801 10.7608H50.7505C50.7505 10.5637 50.8232 10.44 50.9677 10.44Z" fill="#636468"/>
<path d="M51.6529 11.4095H51.8423V10.7085C51.8423 10.5898 51.9418 10.4872 52.0567 10.4872C52.0777 10.4872 52.0921 10.4923 52.1112 10.4983L52.1763 10.2991C52.16 10.2921 52.138 10.2881 52.1131 10.2881C52.0031 10.2881 51.9151 10.3504 51.8318 10.4772V10.4571C51.8318 10.4027 51.8155 10.3313 51.7974 10.2901L51.6136 10.3404C51.6376 10.4078 51.6529 10.4792 51.6529 10.6109V11.4095Z" fill="#636468"/>
<path d="M52.8412 10.7379C52.5063 10.7379 52.3149 10.8716 52.3149 11.1241C52.3149 11.3323 52.4432 11.4429 52.6489 11.4429C52.8288 11.4429 52.9158 11.3343 52.9426 11.2991C52.9675 11.3755 53.0163 11.4298 53.0804 11.456L53.178 11.3212C53.0967 11.2689 53.0929 11.2086 53.0929 11.0587C53.0929 10.8998 53.1015 10.7328 53.1015 10.6554C53.1015 10.5488 53.0967 10.5116 53.0804 10.4643C53.0412 10.3486 52.9321 10.2903 52.7809 10.2903C52.5809 10.2903 52.4489 10.3728 52.3475 10.4331L52.4345 10.5769C52.5187 10.5095 52.6431 10.4532 52.7522 10.4532C52.8967 10.4532 52.9139 10.5397 52.9139 10.6675V10.7399C52.8862 10.7379 52.8661 10.7379 52.8412 10.7379ZM52.9034 11.1543C52.8556 11.2407 52.7733 11.2971 52.6862 11.2971C52.5809 11.2971 52.5235 11.2277 52.5235 11.108C52.5235 11.0366 52.5379 10.9973 52.5771 10.9501C52.6183 10.8998 52.7053 10.8716 52.8469 10.8716C52.8642 10.8716 52.8804 10.8736 52.9091 10.8767L52.9034 11.1543Z" fill="#636468"/>
<path d="M53.7455 11.2909C53.6297 11.2909 53.512 11.2406 53.4125 11.1823L53.3445 11.3251C53.4641 11.3996 53.6048 11.4408 53.7311 11.4408C53.9722 11.4408 54.1378 11.2929 54.1378 11.0757C54.1378 10.9329 54.0593 10.8172 53.8689 10.7719L53.7349 10.7398C53.6259 10.7136 53.5885 10.6704 53.5885 10.5919C53.5885 10.4943 53.6584 10.429 53.7684 10.429C53.8507 10.429 53.9273 10.4571 54.022 10.5074L54.0861 10.3666C54.0009 10.3143 53.8861 10.2771 53.7598 10.2771C53.5369 10.2771 53.3857 10.4159 53.3857 10.616C53.3857 10.776 53.4747 10.8826 53.6383 10.9178L53.7636 10.9439C53.8832 10.9671 53.9368 11.0214 53.9368 11.1149C53.9368 11.2215 53.8584 11.2909 53.7455 11.2909Z" fill="#636468"/>
<path d="M54.4143 11.4095H54.6066V10.4641H54.8296L54.8793 10.3223H54.6047V10.1473C54.6047 10.0367 54.6564 9.97329 54.7425 9.97329C54.7903 9.97329 54.8315 9.99039 54.8774 10.0145L54.9406 9.88478C54.8774 9.84354 54.8009 9.82544 54.7157 9.82544C54.6391 9.82544 54.5779 9.84153 54.5282 9.87774C54.4727 9.91898 54.4124 10.0015 54.4124 10.1493C54.4124 10.1664 54.4124 10.3012 54.4162 10.3223H54.3157V10.4641H54.4143V11.4095Z" fill="#636468"/>
<path d="M55.4429 11.4337C55.5768 11.4337 55.6993 11.3884 55.7998 11.2949L55.728 11.1752C55.6534 11.2446 55.5711 11.2798 55.4735 11.2798C55.3749 11.2798 55.2898 11.2386 55.2362 11.1521C55.2056 11.0998 55.1931 11.0283 55.1931 10.9348V10.9087H55.8227V10.8735C55.8208 10.624 55.7873 10.5033 55.6964 10.4048C55.6247 10.3273 55.5319 10.2881 55.4161 10.2881C55.2879 10.2881 55.1864 10.3354 55.1041 10.4379C55.0152 10.5486 54.9807 10.6703 54.9807 10.8584C54.9807 11.2144 55.1558 11.4337 55.4429 11.4337ZM55.4122 10.44C55.4783 10.44 55.5271 10.4721 55.5606 10.5164C55.6017 10.5697 55.6247 10.6572 55.6247 10.7608H55.195C55.195 10.5637 55.2678 10.44 55.4122 10.44Z" fill="#636468"/>
<path d="M56.0964 11.4095H56.2868V10.7085C56.2868 10.5898 56.3854 10.4872 56.5012 10.4872C56.5222 10.4872 56.5366 10.4923 56.5547 10.4983L56.6208 10.2991C56.6045 10.2921 56.5815 10.2881 56.5567 10.2881C56.4476 10.2881 56.3586 10.3504 56.2763 10.4772V10.4571C56.2763 10.4027 56.26 10.3313 56.2409 10.2901L56.0572 10.3404C56.0821 10.4078 56.0964 10.4792 56.0964 10.6109V11.4095Z" fill="#636468"/>
<path d="M57.2857 10.7379C56.9508 10.7379 56.7595 10.8716 56.7595 11.1241C56.7595 11.3323 56.8867 11.4429 57.0934 11.4429C57.2733 11.4429 57.3594 11.3343 57.3862 11.2991C57.4111 11.3755 57.4608 11.4298 57.5249 11.456L57.6216 11.3212C57.5412 11.2689 57.5374 11.2086 57.5374 11.0587C57.5374 10.8998 57.546 10.7328 57.546 10.6554C57.546 10.5488 57.5412 10.5116 57.5249 10.4643C57.4857 10.3486 57.3766 10.2903 57.2254 10.2903C57.0255 10.2903 56.8934 10.3728 56.792 10.4331L56.8791 10.5769C56.9633 10.5095 57.0877 10.4532 57.1967 10.4532C57.3412 10.4532 57.3575 10.5397 57.3575 10.6675V10.7399C57.3307 10.7379 57.3106 10.7379 57.2857 10.7379ZM57.347 11.1543C57.3001 11.2407 57.2178 11.2971 57.1307 11.2971C57.0255 11.2971 56.9671 11.2277 56.9671 11.108C56.9671 11.0366 56.9814 10.9973 57.0216 10.9501C57.0628 10.8998 57.1489 10.8716 57.2915 10.8716C57.3077 10.8716 57.325 10.8736 57.3537 10.8767L57.347 11.1543Z" fill="#636468"/>
<path d="M58.0283 11.4407C58.1135 11.4407 58.1756 11.3663 58.1756 11.2778C58.1756 11.1883 58.1135 11.1149 58.0283 11.1149C57.9441 11.1149 57.8819 11.1883 57.8819 11.2778C57.8819 11.3663 57.9441 11.4407 58.0283 11.4407Z" fill="#636468"/>
<path d="M58.4895 11.4095H58.679V10.7085C58.679 10.5898 58.7785 10.4872 58.8943 10.4872C58.9144 10.4872 58.9287 10.4923 58.9479 10.4983L59.0139 10.2991C58.9967 10.2921 58.9747 10.2881 58.9498 10.2881C58.8398 10.2881 58.7517 10.3504 58.6685 10.4772V10.4571C58.6685 10.4027 58.6522 10.3313 58.634 10.2901L58.4503 10.3404C58.4752 10.4078 58.4895 10.4792 58.4895 10.6109V11.4095Z" fill="#636468"/>
<path d="M59.5191 11.4469C59.6473 11.4469 59.7487 11.3966 59.831 11.291C59.8492 11.3645 59.876 11.4057 59.9277 11.4469L60.0578 11.3383C60.0166 11.3011 59.9937 11.2237 59.9937 11.113V10.2943L59.8061 10.3335V11.115C59.7631 11.2106 59.6636 11.286 59.5707 11.286C59.5248 11.286 59.4779 11.2649 59.4511 11.2387C59.4138 11.2015 59.4033 11.1583 59.4033 11.0476V10.2903L59.2158 10.3295V11.102C59.2158 11.1804 59.2215 11.2407 59.2406 11.284C59.2837 11.3836 59.387 11.4469 59.5191 11.4469Z" fill="#636468"/>
<path d="M44.0411 17.1335H45.9864V16.4033H44.0411V14.1684H46.2486V13.4171H42.8326V20.2021H46.371V19.4508H44.0411V17.1335Z" fill="#636468"/>
<path d="M49.1067 13.4171H47.1337V20.2021H48.3422V18.0839H49.1335C50.053 18.0839 51.1572 17.4463 51.1572 15.7143C51.1572 14.1584 50.3688 13.4171 49.1067 13.4171ZM48.9928 17.4151H48.3422V14.096H48.9928C49.5449 14.096 49.8521 14.4923 49.8521 15.7767C49.8521 17.0711 49.5363 17.4151 48.9928 17.4151Z" fill="#636468"/>
<path d="M52.9217 13.4171L51.0291 20.2021H51.7649L52.2816 18.3022H54.2613L54.7521 20.2021H56.0314L54.2613 13.4171H52.9217ZM52.4567 17.6454L53.2977 14.4511H53.3159L54.0948 17.6454H52.4567Z" fill="#636468"/>
<path d="M59.0033 19.5343C58.0312 19.5343 57.5317 18.8353 57.5317 16.8096C57.5317 14.785 57.9872 14.096 58.9421 14.096C59.8224 14.096 60.3075 14.6069 60.3075 14.6069L60.474 13.9029C60.474 13.9029 59.7832 13.3125 58.7938 13.3125C57.1557 13.3125 56.2007 14.7216 56.2007 16.8619C56.2007 18.96 57.0849 20.3178 58.8368 20.3178C60.2999 20.3178 60.8433 19.0646 60.8433 19.0646L60.4577 18.5637C60.4577 18.5637 59.941 19.5343 59.0033 19.5343Z" fill="#636468"/>
<path d="M64.6057 14.0648V13.4171H63.3972V14.0648C61.8729 14.1061 60.8568 15.0354 60.8568 16.7684C60.8568 18.5013 61.8815 19.4619 63.3972 19.5031V20.2021H64.6057V19.5031C66.1127 19.4619 67.1556 18.4903 67.1556 16.7573C67.1556 15.0254 66.1127 14.1061 64.6057 14.0648ZM63.3972 18.8564C62.4776 18.8041 62.136 18.0729 62.136 16.7684C62.136 15.4629 62.4776 14.7538 63.3972 14.7015V18.8564ZM64.6057 18.8564V14.7015C65.5175 14.7538 65.8677 15.4629 65.8677 16.7573C65.8677 18.0729 65.5175 18.8041 64.6057 18.8564Z" fill="#636468"/>
<path d="M69.0607 17.1335H71.006V16.4033H69.0607V14.1684H71.2682V13.4171H67.8522V20.2021H71.3906V19.4508H69.0607V17.1335Z" fill="#636468"/>
<path d="M74.2497 13.4171H72.2757V20.2021H73.4851V18.0839H74.2755C75.195 18.0839 76.2992 17.4463 76.2992 15.7143C76.2992 14.1584 75.5108 13.4171 74.2497 13.4171ZM74.1358 17.4151H73.4851V14.096H74.1358C74.6869 14.096 74.9941 14.4923 74.9941 15.7767C74.9941 17.0711 74.6783 17.4151 74.1358 17.4151Z" fill="#636468"/>
<path d="M79.1908 13.4171H77.8503L75.9576 20.2021H76.6935L77.2101 18.3022H79.1908L79.6807 20.2021H80.96L79.1908 13.4171ZM77.3853 17.6454L78.2263 14.4511H78.2445L79.0243 17.6454H77.3853Z" fill="#636468"/>
<path d="M41.894 19.5092L40.3095 16.0583L41.9199 13.4071H41.0788L39.521 16.1006L39.0034 16.5492V13.4071H37.7949V20.1921H39.0034V17.4574L39.4445 17.042L41.0099 20.6256C39.3641 22.4078 37.0629 23.5162 34.5139 23.5162C29.5134 23.5162 25.4602 19.2557 25.4602 14.0005C25.4602 8.74428 29.5134 4.48378 34.5139 4.48378C39.1259 4.48378 42.9293 8.10963 43.4929 12.7966H43.956H79.2549V12.3098H43.8881C43.1207 7.59869 39.211 4 34.5139 4C29.2675 4 25 8.48579 25 14.0005C25 19.5142 29.2675 24 34.5139 24C37.1242 24 39.4923 22.8886 41.2137 21.0923C41.2137 21.0923 41.2137 21.0913 41.2147 21.0913C41.3065 20.9947 41.3965 20.8962 41.4854 20.7956C41.4893 20.7916 41.4931 20.7865 41.4969 20.7815C41.584 20.6829 41.6682 20.5834 41.7505 20.4818C41.8778 20.3249 42.0012 20.1649 42.1198 20L41.894 19.5092Z" fill="#636468"/>
</g>
</g>
<defs>
<filter id="filter0_d_602_334" x="0" y="0" width="105.778" height="36" filterUnits="userSpaceOnUse" color-interpolation-filters="sRGB">
<feFlood flood-opacity="0" result="BackgroundImageFix"/>
<feColorMatrix in="SourceAlpha" type="matrix" values="0 0 0 0 0 0 0 0 0 0 0 0 0 0 0 0 0 0 127 0" result="hardAlpha"/>
<feOffset dy="4"/>
<feGaussianBlur stdDeviation="2"/>
<feComposite in2="hardAlpha" operator="out"/>
<feColorMatrix type="matrix" values="0 0 0 0 0 0 0 0 0 0 0 0 0 0 0 0 0 0 0.25 0"/>
<feBlend mode="normal" in2="BackgroundImageFix" result="effect1_dropShadow_602_334"/>
<feBlend mode="normal" in="SourceGraphic" in2="effect1_dropShadow_602_334" result="shape"/>
</filter>
</defs>
</svg>
