<svg width="98" height="28" viewBox="0 0 98 28" fill="none" xmlns="http://www.w3.org/2000/svg">
<g opacity="0.8">
<rect x="0.5" y="0.5" width="96.7778" height="27" rx="7.5" fill="white"/>
<path d="M24.7431 15.132C23.7078 10.8665 24.5996 7.06362 26.7965 5.85266C25.4847 6.51447 24.3595 7.51723 23.5203 8.75032C22.2104 10.8434 21.8851 14.1343 23.2199 17.2482C24.524 20.2917 26.8291 22.1725 28.7782 22.8383C29.3369 22.958 29.9158 23.0214 30.5081 23.0214C30.6201 23.0214 30.732 23.0174 30.843 23.0123C29.0719 22.429 26.0598 20.5552 24.7431 15.132Z" fill="#006A44"/>
<path d="M32.3645 10.8725C33.55 7.824 36.099 7.36938 37.209 8.35103C35.9565 6.70959 34.17 5.53886 32.1262 5.1295C30.8574 5.07921 28.3658 6.6764 27.8778 11.1149C27.2693 16.6518 29.7025 21.2512 32.1693 22.8514C32.6936 22.7428 33.1988 22.5849 33.684 22.3817C31.8181 20.1992 30.6603 15.2537 32.3645 10.8725Z" fill="#006A44"/>
<path d="M23.2199 17.2482C21.8851 14.1343 22.2105 10.8433 23.5204 8.75031C22.5138 10.2288 21.9205 12.0382 21.9205 13.9945C21.9205 18.3575 24.8647 21.9965 28.7782 22.8383C26.8291 22.1725 24.5241 20.2917 23.2199 17.2482Z" fill="#F78222"/>
<path d="M27.8778 11.1149C28.3658 6.67642 30.8574 5.07923 32.1262 5.12952C31.6018 5.02492 31.0612 4.96759 30.5082 4.96759C29.1781 4.96759 27.9199 5.28542 26.7966 5.85268C24.5997 7.06364 23.7079 10.8665 24.7432 15.132C26.0598 20.5552 29.0719 22.429 30.8431 23.0123C31.2947 22.9942 31.7377 22.9399 32.1692 22.8514C29.7025 21.2512 27.2692 16.6518 27.8778 11.1149Z" fill="#F78222"/>
<path d="M40.9004 11.4186L41.0554 10.8131C41.0698 10.7548 41.1109 10.5698 41.1109 10.5698H41.1176C41.1176 10.5698 41.1626 10.7498 41.1808 10.8262L41.3319 11.4186H41.5157L41.8046 10.3223H41.6066L41.4783 10.9178C41.464 10.9892 41.4305 11.1752 41.4305 11.1752H41.4228C41.4228 11.1752 41.3941 11.0284 41.3645 10.9107L41.22 10.3223H41.0238L40.8669 10.9278C40.843 11.0213 40.82 11.1752 40.82 11.1752H40.8133C40.8133 11.1752 40.7827 11.0173 40.7598 10.9087L40.6277 10.2992L40.4363 10.3314L40.7186 11.4186H40.9004Z" fill="#636468"/>
<path d="M42.4218 11.4186L42.5768 10.8131C42.5911 10.7548 42.6323 10.5698 42.6323 10.5698H42.639C42.639 10.5698 42.6839 10.7498 42.7021 10.8262L42.8533 11.4186H43.037L43.326 10.3223H43.1279L42.9997 10.9178C42.9854 10.9892 42.9519 11.1752 42.9519 11.1752H42.9442C42.9442 11.1752 42.9155 11.0284 42.8868 10.9107L42.7414 10.3223H42.5462L42.3892 10.9278C42.3644 11.0213 42.3414 11.1752 42.3414 11.1752H42.3357C42.3357 11.1752 42.3041 11.0173 42.2811 10.9087L42.1491 10.2992L41.9577 10.3314L42.24 11.4186H42.4218Z" fill="#636468"/>
<path d="M43.9431 11.4186L44.0981 10.8131C44.1125 10.7548 44.1536 10.5698 44.1536 10.5698H44.1603C44.1603 10.5698 44.2053 10.7498 44.2244 10.8262L44.3747 11.4186H44.5584L44.8474 10.3223H44.6493L44.5211 10.9178C44.5067 10.9892 44.4742 11.1752 44.4742 11.1752H44.4656C44.4656 11.1752 44.4369 11.0284 44.4082 10.9107L44.2637 10.3223H44.0675L43.9106 10.9278C43.8857 11.0213 43.8628 11.1752 43.8628 11.1752H43.857C43.857 11.1752 43.8254 11.0173 43.8034 10.9087L43.6714 10.2992L43.4791 10.3314L43.7623 11.4186H43.9431Z" fill="#636468"/>
<path d="M45.1191 11.4407C45.2033 11.4407 45.2655 11.3663 45.2655 11.2778C45.2655 11.1883 45.2033 11.1149 45.1191 11.1149C45.034 11.1149 44.9727 11.1883 44.9727 11.2778C44.9727 11.3663 45.034 11.4407 45.1191 11.4407Z" fill="#636468"/>
<path d="M46.4539 11.4096L45.9936 10.783L46.363 10.3203H46.1314L45.7908 10.791L46.2166 11.4096H46.4539Z" fill="#636468"/>
<path d="M45.5803 11.4096H45.7697V10.0558C45.7697 9.96731 45.7582 9.87578 45.7458 9.81744L45.5535 9.86472C45.5697 9.92808 45.5803 10.0015 45.5803 10.1121V11.4096Z" fill="#636468"/>
<path d="M46.9983 11.4337C47.1333 11.4337 47.2548 11.3885 47.3553 11.2949L47.2835 11.1752C47.2089 11.2446 47.1266 11.2798 47.0299 11.2798C46.9304 11.2798 46.8462 11.2386 46.7926 11.1521C46.7611 11.0998 46.7486 11.0284 46.7486 10.9349V10.9087H47.3782V10.8735C47.3763 10.6241 47.3438 10.5034 47.2529 10.4048C47.1801 10.3274 47.0873 10.2881 46.9716 10.2881C46.8443 10.2881 46.7429 10.3354 46.6596 10.438C46.5716 10.5486 46.5362 10.6703 46.5362 10.8584C46.5362 11.2145 46.7113 11.4337 46.9983 11.4337ZM46.9677 10.44C47.0338 10.44 47.0835 10.4722 47.116 10.5165C47.1572 10.5698 47.1801 10.6573 47.1801 10.7609H46.7505C46.7505 10.5637 46.8232 10.44 46.9677 10.44Z" fill="#636468"/>
<path d="M47.6529 11.4096H47.8423V10.7086C47.8423 10.5899 47.9418 10.4873 48.0567 10.4873C48.0777 10.4873 48.0921 10.4923 48.1112 10.4984L48.1763 10.2992C48.16 10.2922 48.138 10.2881 48.1131 10.2881C48.0031 10.2881 47.9151 10.3505 47.8318 10.4772V10.4571C47.8318 10.4028 47.8155 10.3314 47.7974 10.2902L47.6136 10.3404C47.6376 10.4078 47.6529 10.4792 47.6529 10.611V11.4096Z" fill="#636468"/>
<path d="M48.8412 10.7378C48.5063 10.7378 48.3149 10.8716 48.3149 11.124C48.3149 11.3322 48.4432 11.4428 48.6489 11.4428C48.8288 11.4428 48.9158 11.3342 48.9426 11.299C48.9675 11.3755 49.0163 11.4298 49.0804 11.4559L49.178 11.3212C49.0967 11.2688 49.0929 11.2085 49.0929 11.0586C49.0929 10.8997 49.1015 10.7328 49.1015 10.6553C49.1015 10.5487 49.0967 10.5115 49.0804 10.4642C49.0412 10.3486 48.9321 10.2902 48.7809 10.2902C48.5809 10.2902 48.4489 10.3727 48.3475 10.433L48.4345 10.5769C48.5187 10.5095 48.6431 10.4532 48.7522 10.4532C48.8967 10.4532 48.9139 10.5397 48.9139 10.6674V10.7398C48.8862 10.7378 48.8661 10.7378 48.8412 10.7378ZM48.9034 11.1542C48.8556 11.2407 48.7733 11.297 48.6862 11.297C48.5809 11.297 48.5235 11.2276 48.5235 11.1079C48.5235 11.0365 48.5379 10.9973 48.5771 10.95C48.6183 10.8997 48.7053 10.8716 48.8469 10.8716C48.8642 10.8716 48.8804 10.8736 48.9091 10.8766L48.9034 11.1542Z" fill="#636468"/>
<path d="M49.7455 11.2909C49.6297 11.2909 49.512 11.2406 49.4125 11.1823L49.3445 11.3251C49.4641 11.3996 49.6048 11.4408 49.7311 11.4408C49.9722 11.4408 50.1378 11.2929 50.1378 11.0757C50.1378 10.9329 50.0593 10.8172 49.8689 10.7719L49.7349 10.7398C49.6259 10.7136 49.5885 10.6704 49.5885 10.5919C49.5885 10.4943 49.6584 10.429 49.7684 10.429C49.8507 10.429 49.9273 10.4571 50.022 10.5074L50.0861 10.3666C50.0009 10.3143 49.8861 10.2771 49.7598 10.2771C49.5369 10.2771 49.3857 10.4159 49.3857 10.616C49.3857 10.776 49.4747 10.8826 49.6383 10.9178L49.7636 10.9439C49.8832 10.9671 49.9368 11.0214 49.9368 11.1149C49.9368 11.2215 49.8584 11.2909 49.7455 11.2909Z" fill="#636468"/>
<path d="M50.4143 11.4096H50.6066V10.4642H50.8296L50.8793 10.3224H50.6047V10.1474C50.6047 10.0367 50.6564 9.97335 50.7425 9.97335C50.7903 9.97335 50.8315 9.99045 50.8774 10.0146L50.9406 9.88484C50.8774 9.8436 50.8009 9.8255 50.7157 9.8255C50.6391 9.8255 50.5779 9.84159 50.5282 9.8778C50.4727 9.91904 50.4124 10.0015 50.4124 10.1494C50.4124 10.1665 50.4124 10.3012 50.4162 10.3224H50.3157V10.4642H50.4143V11.4096Z" fill="#636468"/>
<path d="M51.4429 11.4337C51.5768 11.4337 51.6993 11.3885 51.7998 11.2949L51.728 11.1752C51.6534 11.2446 51.5711 11.2798 51.4735 11.2798C51.3749 11.2798 51.2898 11.2386 51.2362 11.1521C51.2056 11.0998 51.1931 11.0284 51.1931 10.9349V10.9087H51.8227V10.8735C51.8208 10.6241 51.7873 10.5034 51.6964 10.4048C51.6247 10.3274 51.5319 10.2881 51.4161 10.2881C51.2879 10.2881 51.1864 10.3354 51.1041 10.438C51.0152 10.5486 50.9807 10.6703 50.9807 10.8584C50.9807 11.2145 51.1558 11.4337 51.4429 11.4337ZM51.4122 10.44C51.4783 10.44 51.5271 10.4722 51.5606 10.5165C51.6017 10.5698 51.6247 10.6573 51.6247 10.7609H51.195C51.195 10.5637 51.2678 10.44 51.4122 10.44Z" fill="#636468"/>
<path d="M52.0964 11.4096H52.2868V10.7086C52.2868 10.5899 52.3854 10.4873 52.5012 10.4873C52.5222 10.4873 52.5366 10.4923 52.5547 10.4984L52.6208 10.2992C52.6045 10.2922 52.5815 10.2881 52.5567 10.2881C52.4476 10.2881 52.3586 10.3505 52.2763 10.4772V10.4571C52.2763 10.4028 52.26 10.3314 52.2409 10.2902L52.0572 10.3404C52.0821 10.4078 52.0964 10.4792 52.0964 10.611V11.4096Z" fill="#636468"/>
<path d="M53.2857 10.7378C52.9508 10.7378 52.7595 10.8716 52.7595 11.124C52.7595 11.3322 52.8867 11.4428 53.0934 11.4428C53.2733 11.4428 53.3594 11.3342 53.3862 11.299C53.4111 11.3755 53.4608 11.4298 53.5249 11.4559L53.6216 11.3212C53.5412 11.2688 53.5374 11.2085 53.5374 11.0586C53.5374 10.8997 53.546 10.7328 53.546 10.6553C53.546 10.5487 53.5412 10.5115 53.5249 10.4642C53.4857 10.3486 53.3766 10.2902 53.2254 10.2902C53.0255 10.2902 52.8934 10.3727 52.792 10.433L52.8791 10.5769C52.9633 10.5095 53.0877 10.4532 53.1967 10.4532C53.3412 10.4532 53.3575 10.5397 53.3575 10.6674V10.7398C53.3307 10.7378 53.3106 10.7378 53.2857 10.7378ZM53.347 11.1542C53.3001 11.2407 53.2178 11.297 53.1307 11.297C53.0255 11.297 52.9671 11.2276 52.9671 11.1079C52.9671 11.0365 52.9814 10.9973 53.0216 10.95C53.0628 10.8997 53.1489 10.8716 53.2915 10.8716C53.3077 10.8716 53.325 10.8736 53.3537 10.8766L53.347 11.1542Z" fill="#636468"/>
<path d="M54.0283 11.4407C54.1135 11.4407 54.1756 11.3663 54.1756 11.2778C54.1756 11.1883 54.1135 11.1149 54.0283 11.1149C53.9441 11.1149 53.8819 11.1883 53.8819 11.2778C53.8819 11.3663 53.9441 11.4407 54.0283 11.4407Z" fill="#636468"/>
<path d="M54.4895 11.4096H54.679V10.7086C54.679 10.5899 54.7785 10.4873 54.8943 10.4873C54.9144 10.4873 54.9287 10.4923 54.9479 10.4984L55.0139 10.2992C54.9967 10.2922 54.9747 10.2881 54.9498 10.2881C54.8398 10.2881 54.7517 10.3505 54.6685 10.4772V10.4571C54.6685 10.4028 54.6522 10.3314 54.634 10.2902L54.4503 10.3404C54.4752 10.4078 54.4895 10.4792 54.4895 10.611V11.4096Z" fill="#636468"/>
<path d="M55.5191 11.4469C55.6473 11.4469 55.7487 11.3966 55.831 11.291C55.8492 11.3644 55.876 11.4056 55.9277 11.4469L56.0578 11.3382C56.0166 11.301 55.9937 11.2236 55.9937 11.113V10.2942L55.8061 10.3335V11.115C55.7631 11.2105 55.6636 11.2859 55.5707 11.2859C55.5248 11.2859 55.4779 11.2648 55.4511 11.2387C55.4138 11.2015 55.4033 11.1582 55.4033 11.0476V10.2902L55.2158 10.3294V11.1019C55.2158 11.1803 55.2215 11.2407 55.2406 11.2839C55.2837 11.3835 55.387 11.4469 55.5191 11.4469Z" fill="#636468"/>
<path d="M40.0411 17.1335H41.9864V16.4033H40.0411V14.1684H42.2486V13.4171H38.8326V20.2021H42.371V19.4508H40.0411V17.1335Z" fill="#636468"/>
<path d="M45.1067 13.4171H43.1337V20.2021H44.3422V18.0839H45.1335C46.053 18.0839 47.1572 17.4463 47.1572 15.7143C47.1572 14.1584 46.3688 13.4171 45.1067 13.4171ZM44.9928 17.4151H44.3422V14.096H44.9928C45.5449 14.096 45.8521 14.4923 45.8521 15.7767C45.8521 17.0711 45.5363 17.4151 44.9928 17.4151Z" fill="#636468"/>
<path d="M48.9217 13.4171L47.0291 20.2021H47.7649L48.2816 18.3022H50.2613L50.7521 20.2021H52.0314L50.2613 13.4171H48.9217ZM48.4567 17.6454L49.2977 14.4511H49.3159L50.0948 17.6454H48.4567Z" fill="#636468"/>
<path d="M55.0033 19.5343C54.0312 19.5343 53.5317 18.8353 53.5317 16.8097C53.5317 14.785 53.9872 14.0961 54.9421 14.0961C55.8224 14.0961 56.3075 14.607 56.3075 14.607L56.474 13.903C56.474 13.903 55.7832 13.3126 54.7938 13.3126C53.1557 13.3126 52.2007 14.7217 52.2007 16.862C52.2007 18.96 53.0849 20.3178 54.8368 20.3178C56.2999 20.3178 56.8433 19.0646 56.8433 19.0646L56.4577 18.5638C56.4577 18.5638 55.941 19.5343 55.0033 19.5343Z" fill="#636468"/>
<path d="M60.6057 14.0648V13.4171H59.3972V14.0648C57.8729 14.1061 56.8568 15.0354 56.8568 16.7684C56.8568 18.5013 57.8815 19.4619 59.3972 19.5031V20.2021H60.6057V19.5031C62.1127 19.4619 63.1556 18.4903 63.1556 16.7573C63.1556 15.0254 62.1127 14.1061 60.6057 14.0648ZM59.3972 18.8564C58.4776 18.8041 58.136 18.0729 58.136 16.7684C58.136 15.4629 58.4776 14.7538 59.3972 14.7015V18.8564ZM60.6057 18.8564V14.7015C61.5175 14.7538 61.8677 15.4629 61.8677 16.7573C61.8677 18.0729 61.5175 18.8041 60.6057 18.8564Z" fill="#636468"/>
<path d="M65.0607 17.1335H67.006V16.4033H65.0607V14.1684H67.2682V13.4171H63.8522V20.2021H67.3906V19.4508H65.0607V17.1335Z" fill="#636468"/>
<path d="M70.2497 13.4171H68.2757V20.2021H69.4851V18.0839H70.2755C71.195 18.0839 72.2992 17.4463 72.2992 15.7143C72.2992 14.1584 71.5108 13.4171 70.2497 13.4171ZM70.1358 17.4151H69.4851V14.096H70.1358C70.6869 14.096 70.9941 14.4923 70.9941 15.7767C70.9941 17.0711 70.6783 17.4151 70.1358 17.4151Z" fill="#636468"/>
<path d="M75.1908 13.4171H73.8503L71.9576 20.2021H72.6935L73.2101 18.3022H75.1908L75.6807 20.2021H76.96L75.1908 13.4171ZM73.3853 17.6454L74.2263 14.4511H74.2445L75.0243 17.6454H73.3853Z" fill="#636468"/>
<path d="M37.894 19.5092L36.3095 16.0583L37.9199 13.4071H37.0788L35.521 16.1006L35.0034 16.5492V13.4071H33.7949V20.1921H35.0034V17.4574L35.4445 17.042L37.0099 20.6256C35.3641 22.4078 33.0629 23.5162 30.5139 23.5162C25.5134 23.5162 21.4602 19.2557 21.4602 14.0005C21.4602 8.74428 25.5134 4.48378 30.5139 4.48378C35.1259 4.48378 38.9293 8.10963 39.4929 12.7966H39.956H75.2549V12.3098H39.8881C39.1207 7.59869 35.211 4 30.5139 4C25.2675 4 21 8.48579 21 14.0005C21 19.5142 25.2675 24 30.5139 24C33.1242 24 35.4923 22.8886 37.2137 21.0923C37.2137 21.0923 37.2137 21.0913 37.2147 21.0913C37.3065 20.9947 37.3965 20.8962 37.4854 20.7956C37.4893 20.7916 37.4931 20.7865 37.4969 20.7815C37.584 20.6829 37.6682 20.5834 37.7505 20.4818C37.8778 20.3249 38.0012 20.1649 38.1198 20L37.894 19.5092Z" fill="#636468"/>
<rect x="0.5" y="0.5" width="96.7778" height="27" rx="7.5" stroke="#2E8364"/>
</g>
</svg>
