<svg width="98" height="28" viewBox="0 0 98 28" fill="none" xmlns="http://www.w3.org/2000/svg">
<rect x="0.5" y="0.5" width="96.7778" height="27" rx="7.5" fill="white"/>
<path d="M22.1472 15.3335C21.0001 10.6076 21.9881 6.39428 24.4222 5.05261C22.9687 5.78585 21.722 6.89685 20.7923 8.26303C19.341 10.582 18.9806 14.2281 20.4594 17.6781C21.9044 21.0501 24.4582 23.1339 26.6177 23.8716C27.2368 24.0042 27.8782 24.0744 28.5344 24.0744C28.6584 24.0744 28.7824 24.07 28.9054 24.0644C26.9431 23.4181 23.6059 21.3421 22.1472 15.3335Z" fill="#006A44"/>
<path d="M30.5911 10.6143C31.9045 7.23671 34.7287 6.73303 35.9584 7.82063C34.5707 6.00202 32.5915 4.70493 30.3271 4.25139C28.9214 4.19568 26.1608 5.96525 25.6202 10.8828C24.9459 17.0173 27.6418 22.1132 30.3748 23.8861C30.9557 23.7657 31.5155 23.5908 32.053 23.3657C29.9857 20.9476 28.703 15.4684 30.5911 10.6143Z" fill="#006A44"/>
<path d="M20.4595 17.6781C18.9807 14.2281 19.3411 10.582 20.7924 8.26306C19.6772 9.90114 19.0199 11.9058 19.0199 14.0732C19.0199 18.9073 22.2819 22.9389 26.6178 23.8716C24.4583 23.134 21.9045 21.0501 20.4595 17.6781Z" fill="#F78222"/>
<path d="M25.6202 10.8829C26.1608 5.96529 28.9214 4.19571 30.3271 4.25143C29.7461 4.13554 29.1472 4.07202 28.5344 4.07202C27.0609 4.07202 25.6668 4.42415 24.4222 5.05264C21.9882 6.39431 21.0002 10.6076 22.1472 15.3336C23.6059 21.3421 26.9432 23.4181 28.9055 24.0644C29.4058 24.0444 29.8967 23.9842 30.3748 23.8861C27.6418 22.1132 24.9459 17.0173 25.6202 10.8829Z" fill="#F78222"/>
<path d="M40.0483 11.2194L40.2201 10.5486C40.236 10.4839 40.2816 10.2789 40.2816 10.2789H40.289C40.289 10.2789 40.3388 10.4784 40.359 10.563L40.5265 11.2194H40.73L41.0501 10.0048H40.8307L40.6886 10.6644C40.6727 10.7436 40.6356 10.9497 40.6356 10.9497H40.6272C40.6272 10.9497 40.5954 10.787 40.5625 10.6566L40.4024 10.0048H40.1851L40.0112 10.6756C39.9847 10.7792 39.9593 10.9497 39.9593 10.9497H39.9519C39.9519 10.9497 39.9179 10.7748 39.8925 10.6544L39.7462 9.97913L39.5342 10.0148L39.8469 11.2194H40.0483Z" fill="#636468"/>
<path d="M41.7339 11.2194L41.9056 10.5486C41.9215 10.4839 41.9671 10.2789 41.9671 10.2789H41.9745C41.9745 10.2789 42.0244 10.4784 42.0445 10.563L42.212 11.2194H42.4155L42.7357 10.0048H42.5163L42.3742 10.6644C42.3583 10.7436 42.3212 10.9497 42.3212 10.9497H42.3127C42.3127 10.9497 42.2809 10.787 42.2491 10.6566L42.088 10.0048H41.8717L41.6978 10.6756C41.6703 10.7792 41.6448 10.9497 41.6448 10.9497H41.6385C41.6385 10.9497 41.6035 10.7748 41.578 10.6544L41.4318 9.97913L41.2197 10.0148L41.5325 11.2194H41.7339Z" fill="#636468"/>
<path d="M43.4195 11.2194L43.5912 10.5486C43.6071 10.4839 43.6527 10.2789 43.6527 10.2789H43.6601C43.6601 10.2789 43.71 10.4784 43.7312 10.563L43.8976 11.2194H44.1011L44.4213 10.0048H44.2019L44.0598 10.6644C44.0439 10.7436 44.0079 10.9497 44.0079 10.9497H43.9983C43.9983 10.9497 43.9665 10.787 43.9347 10.6566L43.7746 10.0048H43.5573L43.3834 10.6756C43.3559 10.7792 43.3304 10.9497 43.3304 10.9497H43.3241C43.3241 10.9497 43.2891 10.7748 43.2647 10.6544L43.1184 9.97913L42.9053 10.0148L43.2191 11.2194H43.4195Z" fill="#636468"/>
<path d="M44.7224 11.2439C44.8157 11.2439 44.8846 11.1614 44.8846 11.0633C44.8846 10.9642 44.8157 10.8828 44.7224 10.8828C44.628 10.8828 44.5602 10.9642 44.5602 11.0633C44.5602 11.1614 44.628 11.2439 44.7224 11.2439Z" fill="#636468"/>
<path d="M46.2012 11.2093L45.6913 10.5151L46.1005 10.0025H45.844L45.4666 10.524L45.9383 11.2093H46.2012Z" fill="#636468"/>
<path d="M45.2333 11.2094H45.4432V9.70947C45.4432 9.61141 45.4305 9.51001 45.4167 9.44537L45.2036 9.49775C45.2216 9.56795 45.2333 9.6493 45.2333 9.77188V11.2094Z" fill="#636468"/>
<path d="M46.8045 11.2361C46.9539 11.2361 47.0886 11.1859 47.1999 11.0823L47.1204 10.9497C47.0377 11.0266 46.9465 11.0656 46.8394 11.0656C46.7292 11.0656 46.6359 11.0199 46.5765 10.9241C46.5415 10.8661 46.5278 10.787 46.5278 10.6834V10.6544H47.2253V10.6154C47.2232 10.339 47.1872 10.2053 47.0864 10.0961C47.0059 10.0103 46.903 9.96686 46.7748 9.96686C46.6338 9.96686 46.5214 10.0192 46.4292 10.1329C46.3316 10.2555 46.2924 10.3903 46.2924 10.5987C46.2924 10.9932 46.4864 11.2361 46.8045 11.2361ZM46.7705 10.1351C46.8437 10.1351 46.8988 10.1708 46.9349 10.2198C46.9804 10.2789 47.0059 10.3758 47.0059 10.4906H46.5299C46.5299 10.2722 46.6105 10.1351 46.7705 10.1351Z" fill="#636468"/>
<path d="M47.5296 11.2093H47.7395V10.4327C47.7395 10.3012 47.8498 10.1875 47.977 10.1875C48.0003 10.1875 48.0162 10.1931 48.0374 10.1998L48.1095 9.97912C48.0915 9.97132 48.0671 9.96686 48.0395 9.96686C47.9176 9.96686 47.8201 10.0359 47.7279 10.1764V10.1541C47.7279 10.0939 47.7098 10.0148 47.6897 9.96909L47.4861 10.0248C47.5126 10.0995 47.5296 10.1786 47.5296 10.3246V11.2093Z" fill="#636468"/>
<path d="M48.8462 10.4651C48.4752 10.4651 48.2632 10.6133 48.2632 10.893C48.2632 11.1236 48.4052 11.2462 48.6332 11.2462C48.8325 11.2462 48.9289 11.1259 48.9586 11.0869C48.9862 11.1716 49.0403 11.2317 49.1113 11.2607L49.2194 11.1114C49.1293 11.0534 49.1251 10.9866 49.1251 10.8205C49.1251 10.6445 49.1346 10.4595 49.1346 10.3737C49.1346 10.2556 49.1293 10.2143 49.1113 10.162C49.0678 10.0338 48.947 9.96918 48.7795 9.96918C48.5579 9.96918 48.4116 10.0606 48.2992 10.1274L48.3957 10.2868C48.489 10.2121 48.6268 10.1497 48.7477 10.1497C48.9077 10.1497 48.9268 10.2455 48.9268 10.3871V10.4673C48.8961 10.4651 48.8738 10.4651 48.8462 10.4651ZM48.9152 10.9264C48.8622 11.0222 48.771 11.0846 48.6745 11.0846C48.5579 11.0846 48.4943 11.0077 48.4943 10.8751C48.4943 10.796 48.5102 10.7526 48.5537 10.7002C48.5992 10.6445 48.6957 10.6133 48.8526 10.6133C48.8717 10.6133 48.8897 10.6155 48.9215 10.6188L48.9152 10.9264Z" fill="#636468"/>
<path d="M49.8481 11.0778C49.7198 11.0778 49.5894 11.0221 49.4791 10.9575L49.4039 11.1157C49.5364 11.1982 49.6922 11.2439 49.8322 11.2439C50.0993 11.2439 50.2827 11.0801 50.2827 10.8394C50.2827 10.6811 50.1958 10.553 49.9848 10.5028L49.8364 10.4672C49.7155 10.4382 49.6742 10.3903 49.6742 10.3034C49.6742 10.1953 49.7516 10.1229 49.8735 10.1229C49.9647 10.1229 50.0495 10.1541 50.1544 10.2098L50.2255 10.0538C50.1311 9.99582 50.0039 9.95459 49.864 9.95459C49.617 9.95459 49.4495 10.1084 49.4495 10.3301C49.4495 10.5073 49.548 10.6254 49.7293 10.6644L49.8682 10.6934C50.0007 10.719 50.0601 10.7792 50.0601 10.8828C50.0601 11.001 49.9732 11.0778 49.8481 11.0778Z" fill="#636468"/>
<path d="M50.5891 11.2094H50.8022V10.1619H51.0492L51.1043 10.0048H50.8001V9.81087C50.8001 9.6883 50.8573 9.61809 50.9527 9.61809C51.0057 9.61809 51.0513 9.63704 51.1022 9.66378L51.1722 9.52003C51.1022 9.47434 51.0174 9.45428 50.923 9.45428C50.8382 9.45428 50.7704 9.47211 50.7153 9.51223C50.6538 9.55792 50.587 9.64929 50.587 9.8131C50.587 9.83205 50.587 9.98137 50.5912 10.0048H50.4799V10.1619H50.5891V11.2094Z" fill="#636468"/>
<path d="M51.7287 11.2361C51.8771 11.2361 52.0128 11.1859 52.1241 11.0823L52.0446 10.9497C51.9619 11.0266 51.8708 11.0656 51.7626 11.0656C51.6534 11.0656 51.5591 11.0199 51.4997 10.9241C51.4658 10.8661 51.452 10.787 51.452 10.6834V10.6544H52.1496V10.6154C52.1475 10.339 52.1104 10.2053 52.0096 10.0961C51.9301 10.0103 51.8273 9.96686 51.699 9.96686C51.557 9.96686 51.4446 10.0192 51.3534 10.1329C51.2548 10.2555 51.2167 10.3903 51.2167 10.5987C51.2167 10.9932 51.4107 11.2361 51.7287 11.2361ZM51.6948 10.1351C51.7679 10.1351 51.822 10.1708 51.8591 10.2198C51.9047 10.2789 51.9301 10.3758 51.9301 10.4906H51.4541C51.4541 10.2722 51.5347 10.1351 51.6948 10.1351Z" fill="#636468"/>
<path d="M52.4528 11.2093H52.6637V10.4327C52.6637 10.3012 52.7729 10.1875 52.9012 10.1875C52.9245 10.1875 52.9404 10.1931 52.9606 10.1998L53.0337 9.97912C53.0157 9.97132 52.9902 9.96686 52.9627 9.96686C52.8418 9.96686 52.7432 10.0359 52.6521 10.1764V10.1541C52.6521 10.0939 52.634 10.0148 52.6128 9.96909L52.4093 10.0248C52.4369 10.0995 52.4528 10.1786 52.4528 10.3246V11.2093Z" fill="#636468"/>
<path d="M53.7704 10.4651C53.3994 10.4651 53.1874 10.6133 53.1874 10.893C53.1874 11.1236 53.3284 11.2462 53.5574 11.2462C53.7567 11.2462 53.8521 11.1259 53.8818 11.0869C53.9093 11.1716 53.9644 11.2317 54.0355 11.2607L54.1425 11.1114C54.0535 11.0534 54.0493 10.9866 54.0493 10.8205C54.0493 10.6445 54.0588 10.4595 54.0588 10.3737C54.0588 10.2556 54.0535 10.2143 54.0355 10.162C53.992 10.0338 53.8712 9.96918 53.7037 9.96918C53.4821 9.96918 53.3358 10.0606 53.2234 10.1274L53.3199 10.2868C53.4132 10.2121 53.551 10.1497 53.6719 10.1497C53.8319 10.1497 53.85 10.2455 53.85 10.3871V10.4673C53.8203 10.4651 53.798 10.4651 53.7704 10.4651ZM53.8383 10.9264C53.7863 11.0222 53.6952 11.0846 53.5987 11.0846C53.4821 11.0846 53.4174 11.0077 53.4174 10.8751C53.4174 10.796 53.4333 10.7526 53.4779 10.7002C53.5234 10.6445 53.6188 10.6133 53.7768 10.6133C53.7948 10.6133 53.8139 10.6155 53.8457 10.6188L53.8383 10.9264Z" fill="#636468"/>
<path d="M54.5932 11.2439C54.6875 11.2439 54.7564 11.1614 54.7564 11.0633C54.7564 10.9642 54.6875 10.8828 54.5932 10.8828C54.4999 10.8828 54.431 10.9642 54.431 11.0633C54.431 11.1614 54.4999 11.2439 54.5932 11.2439Z" fill="#636468"/>
<path d="M55.1042 11.2093H55.3141V10.4327C55.3141 10.3012 55.4244 10.1875 55.5526 10.1875C55.5749 10.1875 55.5908 10.1931 55.612 10.1998L55.6851 9.97912C55.6661 9.97132 55.6417 9.96686 55.6141 9.96686C55.4922 9.96686 55.3947 10.0359 55.3024 10.1764V10.1541C55.3024 10.0939 55.2844 10.0148 55.2643 9.96909L55.0607 10.0248C55.0883 10.0995 55.1042 10.1786 55.1042 10.3246V11.2093Z" fill="#636468"/>
<path d="M56.2449 11.2507C56.3869 11.2507 56.4993 11.195 56.5905 11.0779C56.6106 11.1593 56.6403 11.205 56.6975 11.2507L56.8417 11.1303C56.7961 11.0891 56.7707 11.0033 56.7707 10.8807V9.97363L56.5629 10.0171V10.8829C56.5152 10.9888 56.4049 11.0724 56.3021 11.0724C56.2512 11.0724 56.1993 11.049 56.1696 11.02C56.1283 10.9788 56.1166 10.9309 56.1166 10.8083V9.96918L55.9088 10.0126V10.8685C55.9088 10.9554 55.9152 11.0222 55.9364 11.0701C55.9841 11.1805 56.0986 11.2507 56.2449 11.2507Z" fill="#636468"/>
<path d="M39.0963 17.551H41.2515V16.742H39.0963V14.2659H41.542V13.4335H37.7574V20.9509H41.6777V20.1185H39.0963V17.551Z" fill="#636468"/>
<path d="M44.7086 13.4335H42.5226V20.9509H43.8616V18.6041H44.7383C45.7571 18.6041 46.9804 17.8976 46.9804 15.9787C46.9804 14.2548 46.1069 13.4335 44.7086 13.4335ZM44.5825 17.863H43.8616V14.1857H44.5825C45.1941 14.1857 45.5344 14.6248 45.5344 16.0478C45.5344 17.4819 45.1846 17.863 44.5825 17.863Z" fill="#636468"/>
<path d="M48.9354 13.4335L46.8385 20.9509H47.6537L48.2262 18.8459H50.4196L50.9634 20.9509H52.3808L50.4196 13.4335H48.9354ZM48.4202 18.1182L49.352 14.5791H49.3722L50.2351 18.1182H48.4202Z" fill="#636468"/>
<path d="M55.6734 20.211C54.5964 20.211 54.043 19.4365 54.043 17.1923C54.043 14.9491 54.5476 14.1858 55.6056 14.1858C56.5809 14.1858 57.1184 14.7518 57.1184 14.7518L57.3029 13.9718C57.3029 13.9718 56.5374 13.3177 55.4413 13.3177C53.6264 13.3177 52.5684 14.8789 52.5684 17.2502C52.5684 19.5747 53.5479 21.0791 55.489 21.0791C57.1099 21.0791 57.7121 19.6906 57.7121 19.6906L57.2848 19.1357C57.2848 19.1357 56.7124 20.211 55.6734 20.211Z" fill="#636468"/>
<path d="M61.8805 14.1512V13.4335H60.5415V14.1512C58.8528 14.1969 57.7269 15.2265 57.7269 17.1465C57.7269 19.0665 58.8623 20.1307 60.5415 20.1764V20.9509H61.8805V20.1764C63.5502 20.1307 64.7057 19.0543 64.7057 17.1343C64.7057 15.2154 63.5502 14.1969 61.8805 14.1512ZM60.5415 19.4599C59.5228 19.4019 59.1443 18.5918 59.1443 17.1465C59.1443 15.7001 59.5228 14.9145 60.5415 14.8565V19.4599ZM61.8805 19.4599V14.8565C62.8908 14.9145 63.2788 15.7001 63.2788 17.1343C63.2788 18.5918 62.8908 19.4019 61.8805 19.4599Z" fill="#636468"/>
<path d="M66.8164 17.551H68.9716V16.742H66.8164V14.2659H69.2621V13.4335H65.4775V20.9509H69.3978V20.1185H66.8164V17.551Z" fill="#636468"/>
<path d="M72.5654 13.4335H70.3784V20.9509H71.7183V18.6041H72.594C73.6128 18.6041 74.8362 17.8976 74.8362 15.9787C74.8362 14.2548 73.9626 13.4335 72.5654 13.4335ZM72.4392 17.863H71.7183V14.1857H72.4392C73.0499 14.1857 73.3902 14.6248 73.3902 16.0478C73.3902 17.4819 73.0403 17.863 72.4392 17.863Z" fill="#636468"/>
<path d="M78.0398 13.4335H76.5546L74.4577 20.9509H75.2729L75.8454 18.8459H78.0398L78.5826 20.9509H80L78.0398 13.4335ZM76.0394 18.1182L76.9712 14.5791H76.9914L77.8554 18.1182H76.0394Z" fill="#636468"/>
<path d="M36.7175 20.1832L34.9619 16.3598L36.7461 13.4224H35.8142L34.0884 16.4066L33.5148 16.9036V13.4224H32.1759V20.9398H33.5148V17.9099L34.0036 17.4497L35.7379 21.4201C33.9145 23.3947 31.3649 24.6227 28.5408 24.6227C23.0006 24.6227 18.5099 19.9023 18.5099 14.0799C18.5099 8.25635 23.0006 3.536 28.5408 3.536C33.6505 3.536 37.8645 7.5532 38.4889 12.746H39.002H78.1109V12.2067H38.9267C38.0765 6.98711 33.7449 3 28.5408 3C22.7281 3 18 7.96996 18 14.0799C18 20.1887 22.7281 25.1587 28.5408 25.1587C31.4328 25.1587 34.0566 23.9273 35.9637 21.9371C35.9637 21.9371 35.9637 21.936 35.9648 21.936C36.0665 21.829 36.1662 21.7198 36.2648 21.6084C36.269 21.6039 36.2733 21.5984 36.2775 21.5928C36.374 21.4836 36.4673 21.3733 36.5584 21.2607C36.6994 21.0869 36.8362 20.9097 36.9676 20.7269L36.7175 20.1832Z" fill="#636468"/>
<rect x="0.5" y="0.5" width="96.7778" height="27" rx="7.5" stroke="#636468"/>
</svg>
