<svg width="98" height="28" viewBox="0 0 98 28" fill="none" xmlns="http://www.w3.org/2000/svg">
<rect width="98" height="28" rx="14" fill="#151A20"/>
<g clip-path="url(#clip0_1_39)">
<path d="M18.4935 12.1104C18.4587 12.3424 18.301 12.6576 18.12 12.9317C17.8916 13.2775 17.5292 13.5197 17.1144 13.6038L15.2874 13.9743C14.9937 14.0338 14.7274 14.1828 14.5275 14.3995L13.3295 15.698C13.1044 15.942 12.947 15.8839 12.947 15.5565C12.9443 15.5687 12.3525 17.0487 13.9209 17.926C14.5235 18.263 15.391 18.1419 15.9937 17.8049L19.1867 16.0189C20.3808 15.351 21.224 14.221 21.5043 12.9131C21.5153 12.8614 21.5239 12.8095 21.5331 12.7576L18.4935 12.1104Z" fill="url(#paint0_linear_1_39)"/>
<path d="M17.6654 10.3262C18.268 10.6633 18.5142 11.1651 18.5142 11.8393C18.5142 11.9308 18.5068 12.0212 18.4935 12.1102L19.78 12.6461L21.5331 12.7574C21.7576 11.4976 21.3177 10.2009 20.5291 9.17021C19.9356 8.39455 19.1719 7.72143 18.2538 7.2079C17.508 6.79076 16.7329 6.51592 15.9543 6.3651L15.0794 7.46374L14.803 8.72527L17.6654 10.3262Z" fill="url(#paint1_linear_1_39)"/>
<path d="M7.36732 11.2508C7.36699 11.2518 7.3679 11.2521 7.36824 11.2511C7.43575 11.0548 7.5204 10.8357 7.62609 10.6017C8.17814 9.37923 9.24197 8.56392 10.5508 8.14822C11.8595 7.73253 13.2885 7.87824 14.4813 8.5454L14.8031 8.72535L15.9543 6.36519C12.2927 5.65602 8.5503 7.74206 7.37197 11.2371C7.37141 11.2388 7.36936 11.2446 7.36732 11.2508Z" fill="url(#paint2_linear_1_39)"/>
<path d="M15.8687 17.8047C15.2661 18.1418 14.5236 18.1418 13.9209 17.8047C13.8391 17.759 13.762 17.7075 13.6891 17.6518L12.6293 18.3584L11.7158 19.7898C12.7297 20.608 14.0463 20.8711 15.362 20.7248C16.3522 20.6147 17.3357 20.3105 18.2538 19.797C18.9996 19.3799 19.6329 18.867 20.157 18.2891L19.6123 17.0058L18.731 16.2037L15.8687 17.8047Z" fill="url(#paint3_linear_1_39)"/>
<path d="M13.6891 17.6519C13.2248 17.2972 12.9471 16.7533 12.9471 16.1706V16.1125V11.2602C12.9471 10.9858 13.0305 10.9391 13.2758 11.0764C12.8979 10.865 12.0251 10.1395 10.9474 10.7423C10.3448 11.0794 9.84854 11.8235 9.84854 12.4975V16.0695C9.84854 17.4053 10.5621 18.7988 11.5912 19.6879C11.6319 19.723 11.674 19.7562 11.7158 19.7899L13.6891 17.6519Z" fill="url(#paint4_linear_1_39)"/>
<path d="M20.083 8.64196C20.0823 8.64118 20.0816 8.64181 20.0823 8.64258C20.2241 8.7974 20.3776 8.97796 20.534 9.18363C21.3507 10.258 21.6559 11.6188 21.3731 12.9247C21.0903 14.2305 20.2456 15.3566 19.0528 16.0238L18.731 16.2037L20.157 18.2891C22.6218 15.5716 22.6282 11.3888 20.0929 8.6527C20.0918 8.65139 20.0875 8.64676 20.083 8.64196Z" fill="url(#paint5_linear_1_39)"/>
<path d="M9.97354 12.4975C9.97353 11.8233 10.3448 11.2004 10.9474 10.8633C11.0292 10.8175 11.1138 10.7786 11.2 10.7452L11.0983 9.50274L10.3837 8.08118C9.14533 8.52275 8.14361 9.4353 7.61654 10.6123C7.21989 11.498 7 12.4754 7 13.5024C7 14.3367 7.14182 15.1243 7.39634 15.853L8.8159 16.0377L9.97354 15.6994V12.4975Z" fill="url(#paint6_linear_1_39)"/>
<path d="M11.2 10.7452C11.7492 10.533 12.3743 10.572 12.8951 10.8633L12.9471 10.8924L17.1168 13.2246C17.4093 13.3882 17.3827 13.5492 17.0521 13.6162L17.2927 13.5675C17.6092 13.5033 17.8983 13.3464 18.1195 13.1178C18.4997 12.7248 18.6393 12.2507 18.6393 11.8392C18.6392 11.1651 18.268 10.5422 17.6654 10.2051L14.4723 8.41913C13.2782 7.75122 11.8466 7.60879 10.5372 8.02765C10.4854 8.04422 10.4347 8.063 10.3837 8.08119L11.2 10.7452Z" fill="url(#paint7_linear_1_39)"/>
<path d="M16.0573 20.6147C16.0584 20.6145 16.0582 20.6135 16.0571 20.6138C15.8478 20.6553 15.6097 20.6938 15.3476 20.7222C13.9788 20.8702 12.6098 20.4459 11.5838 19.5557C10.5578 18.6655 9.97356 17.3937 9.97356 16.0594L9.97355 15.6995L7.39636 15.8531C8.59324 19.2798 12.3292 21.3766 16.0427 20.6176C16.0445 20.6173 16.0508 20.616 16.0573 20.6147Z" fill="url(#paint8_linear_1_39)"/>
</g>
<path d="M26.0998 18V9.27273H29.0487C29.7305 9.27273 30.2901 9.3892 30.7276 9.62216C31.1651 9.85227 31.489 10.169 31.6992 10.5724C31.9094 10.9759 32.0146 11.4347 32.0146 11.9489C32.0146 12.4631 31.9094 12.919 31.6992 13.3168C31.489 13.7145 31.1665 14.027 30.7319 14.2543C30.2972 14.4787 29.7418 14.5909 29.0657 14.5909H26.6793V13.6364H29.0316C29.4975 13.6364 29.8725 13.5682 30.1566 13.4318C30.4435 13.2955 30.6509 13.1023 30.7788 12.8523C30.9094 12.5994 30.9748 12.2983 30.9748 11.9489C30.9748 11.5994 30.9094 11.294 30.7788 11.0327C30.6481 10.7713 30.4393 10.5696 30.1523 10.4276C29.8654 10.2827 29.4862 10.2102 29.0146 10.2102H27.1566V18H26.0998ZM30.2077 14.0795L32.3555 18H31.1282L29.0146 14.0795H30.2077ZM36.3132 18.1364C35.6825 18.1364 35.1385 17.9972 34.6811 17.7188C34.2266 17.4375 33.8757 17.0455 33.6286 16.5426C33.3842 16.0369 33.2621 15.4489 33.2621 14.7784C33.2621 14.108 33.3842 13.517 33.6286 13.0057C33.8757 12.4915 34.2195 12.0909 34.6598 11.804C35.103 11.5142 35.62 11.3693 36.2109 11.3693C36.5518 11.3693 36.8885 11.4261 37.2209 11.5398C37.5533 11.6534 37.8558 11.8381 38.1286 12.0938C38.4013 12.3466 38.6186 12.6818 38.7805 13.0994C38.9425 13.517 39.0234 14.0312 39.0234 14.642V15.0682H33.978V14.1989H38.0007C38.0007 13.8295 37.9268 13.5 37.7791 13.2102C37.6342 12.9205 37.4268 12.6918 37.157 12.5241C36.8899 12.3565 36.5746 12.2727 36.2109 12.2727C35.8104 12.2727 35.4638 12.3722 35.1712 12.571C34.8814 12.767 34.6584 13.0227 34.5021 13.3381C34.3459 13.6534 34.2678 13.9915 34.2678 14.3523V14.9318C34.2678 15.4261 34.353 15.8452 34.5234 16.1889C34.6967 16.5298 34.9368 16.7898 35.2436 16.9688C35.5504 17.1449 35.907 17.233 36.3132 17.233C36.5774 17.233 36.8161 17.196 37.0291 17.1222C37.245 17.0455 37.4311 16.9318 37.5874 16.7812C37.7436 16.6278 37.8643 16.4375 37.9496 16.2102L38.9212 16.483C38.8189 16.8125 38.647 17.1023 38.4055 17.3523C38.1641 17.5994 37.8658 17.7926 37.5107 17.9318C37.1555 18.0682 36.7564 18.1364 36.3132 18.1364ZM42.4794 18.1534C42.0646 18.1534 41.6882 18.0753 41.3501 17.919C41.0121 17.7599 40.7436 17.5312 40.5447 17.233C40.3459 16.9318 40.2464 16.5682 40.2464 16.142C40.2464 15.767 40.3203 15.4631 40.468 15.2301C40.6158 14.9943 40.8132 14.8097 41.0604 14.6761C41.3075 14.5426 41.5803 14.4432 41.8786 14.3778C42.1797 14.3097 42.4822 14.2557 42.7862 14.2159C43.1839 14.1648 43.5064 14.1264 43.7536 14.1009C44.0036 14.0724 44.1854 14.0256 44.299 13.9602C44.4155 13.8949 44.4737 13.7812 44.4737 13.6193V13.5852C44.4737 13.1648 44.3587 12.8381 44.1286 12.6051C43.9013 12.3722 43.5561 12.2557 43.093 12.2557C42.6129 12.2557 42.2365 12.3608 41.9638 12.571C41.6911 12.7812 41.4993 13.0057 41.3885 13.2443L40.4339 12.9034C40.6044 12.5057 40.8317 12.196 41.1158 11.9744C41.4027 11.75 41.7152 11.5937 42.0533 11.5057C42.3942 11.4148 42.7294 11.3693 43.0589 11.3693C43.2692 11.3693 43.5107 11.3949 43.7834 11.446C44.0589 11.4943 44.3246 11.5952 44.5803 11.7486C44.8388 11.902 45.0533 12.1335 45.2237 12.4432C45.3942 12.7528 45.4794 13.1676 45.4794 13.6875V18H44.4737V17.1136H44.4226C44.3544 17.2557 44.2408 17.4077 44.0817 17.5696C43.9226 17.7315 43.7109 17.8693 43.4467 17.983C43.1825 18.0966 42.8601 18.1534 42.4794 18.1534ZM42.6328 17.25C43.0305 17.25 43.3658 17.1719 43.6385 17.0156C43.9141 16.8594 44.1214 16.6577 44.2607 16.4105C44.4027 16.1634 44.4737 15.9034 44.4737 15.6307V14.7102C44.4311 14.7614 44.3374 14.8082 44.1925 14.8509C44.0504 14.8906 43.8857 14.9261 43.6982 14.9574C43.5135 14.9858 43.3331 15.0114 43.157 15.0341C42.9837 15.054 42.843 15.071 42.7351 15.0852C42.4737 15.1193 42.2294 15.1747 42.0021 15.2514C41.7777 15.3253 41.5959 15.4375 41.4567 15.5881C41.3203 15.7358 41.2521 15.9375 41.2521 16.1932C41.2521 16.5426 41.3814 16.8068 41.6399 16.9858C41.9013 17.1619 42.2322 17.25 42.6328 17.25ZM49.9741 18.1364C49.3604 18.1364 48.832 17.9915 48.3888 17.7017C47.9457 17.4119 47.6048 17.0128 47.3661 16.5043C47.1275 15.9957 47.0082 15.4148 47.0082 14.7614C47.0082 14.0966 47.1303 13.5099 47.3746 13.0014C47.6218 12.4901 47.9656 12.0909 48.4059 11.804C48.8491 11.5142 49.3661 11.3693 49.957 11.3693C50.4173 11.3693 50.832 11.4545 51.2013 11.625C51.5707 11.7955 51.8732 12.0341 52.109 12.3409C52.3448 12.6477 52.4911 13.0057 52.5479 13.4148H51.5423C51.4656 13.1165 51.2951 12.8523 51.0309 12.6222C50.7695 12.3892 50.4173 12.2727 49.9741 12.2727C49.582 12.2727 49.2383 12.375 48.9428 12.5795C48.6502 12.7812 48.4215 13.0668 48.2567 13.4361C48.0948 13.8026 48.0138 14.233 48.0138 14.7273C48.0138 15.233 48.0934 15.6733 48.2525 16.0483C48.4144 16.4233 48.6417 16.7145 48.9343 16.9219C49.2298 17.1293 49.5763 17.233 49.9741 17.233C50.2354 17.233 50.4727 17.1875 50.6857 17.0966C50.8988 17.0057 51.0792 16.875 51.2269 16.7045C51.3746 16.5341 51.4798 16.3295 51.5423 16.0909H52.5479C52.4911 16.4773 52.3505 16.8253 52.1261 17.1349C51.9045 17.4418 51.6104 17.6861 51.244 17.8679C50.8803 18.0469 50.457 18.1364 49.9741 18.1364ZM56.8647 11.4545V12.3068H53.4727V11.4545H56.8647ZM54.4613 9.88636H55.467V16.125C55.467 16.4091 55.5082 16.6222 55.5906 16.7642C55.6758 16.9034 55.7837 16.9972 55.9144 17.0455C56.0479 17.0909 56.1886 17.1136 56.3363 17.1136C56.4471 17.1136 56.538 17.108 56.609 17.0966C56.68 17.0824 56.7369 17.071 56.7795 17.0625L56.984 17.9659C56.9158 17.9915 56.8207 18.017 56.6985 18.0426C56.5763 18.071 56.4215 18.0852 56.234 18.0852C55.9499 18.0852 55.6715 18.0241 55.3988 17.902C55.1289 17.7798 54.9045 17.5938 54.7255 17.3438C54.5494 17.0938 54.4613 16.7784 54.4613 16.3977V9.88636ZM61.8931 13.7898V14.7273H58.0749V13.7898H61.8931ZM68.5717 11.4545C68.5206 11.0227 68.3132 10.6875 67.9496 10.4489C67.5859 10.2102 67.1399 10.0909 66.6115 10.0909C66.2251 10.0909 65.8871 10.1534 65.5973 10.2784C65.3104 10.4034 65.0859 10.5753 64.924 10.794C64.7649 11.0128 64.6854 11.2614 64.6854 11.5398C64.6854 11.7727 64.7408 11.973 64.8516 12.1406C64.9652 12.3054 65.1101 12.4432 65.2862 12.554C65.4624 12.6619 65.647 12.7514 65.8402 12.8224C66.0334 12.8906 66.2109 12.946 66.3729 12.9886L67.2592 13.2273C67.4865 13.2869 67.7393 13.3693 68.0178 13.4744C68.299 13.5795 68.5675 13.723 68.8232 13.9048C69.0817 14.0838 69.2947 14.3139 69.4624 14.5952C69.63 14.8764 69.7138 15.2216 69.7138 15.6307C69.7138 16.1023 69.5902 16.5284 69.343 16.9091C69.0987 17.2898 68.7408 17.5923 68.2692 17.8168C67.8004 18.0412 67.2308 18.1534 66.5604 18.1534C65.9354 18.1534 65.3942 18.0526 64.9368 17.8509C64.4822 17.6491 64.1243 17.3679 63.8629 17.0071C63.6044 16.6463 63.4581 16.2273 63.424 15.75H64.5149C64.5433 16.0795 64.6541 16.3523 64.8473 16.5682C65.0433 16.7812 65.2905 16.9403 65.5888 17.0455C65.8899 17.1477 66.2138 17.1989 66.5604 17.1989C66.9638 17.1989 67.326 17.1335 67.647 17.0028C67.968 16.8693 68.2223 16.6847 68.4098 16.4489C68.5973 16.2102 68.6911 15.9318 68.6911 15.6136C68.6911 15.3239 68.6101 15.0881 68.4482 14.9062C68.2862 14.7244 68.0732 14.5767 67.8089 14.4631C67.5447 14.3494 67.2592 14.25 66.9524 14.1648L65.8786 13.858C65.1967 13.6619 64.657 13.3821 64.2592 13.0185C63.8615 12.6548 63.6626 12.179 63.6626 11.5909C63.6626 11.1023 63.7947 10.6761 64.0589 10.3125C64.326 9.94602 64.6839 9.66193 65.1328 9.46023C65.5845 9.25568 66.0888 9.15341 66.6456 9.15341C67.2081 9.15341 67.7081 9.25426 68.1456 9.45597C68.5831 9.65483 68.9297 9.92756 69.1854 10.2741C69.4439 10.6207 69.5803 11.0142 69.5945 11.4545H68.5717ZM72.3207 14.0625V18H71.315V9.27273H72.3207V12.4773H72.4059C72.5593 12.1392 72.7894 11.8707 73.0962 11.6719C73.4059 11.4702 73.8178 11.3693 74.332 11.3693C74.7781 11.3693 75.1687 11.4588 75.5039 11.6378C75.8391 11.8139 76.0991 12.0852 76.2837 12.4517C76.4712 12.8153 76.565 13.2784 76.565 13.8409V18H75.5593V13.9091C75.5593 13.3892 75.4244 12.9872 75.1545 12.7031C74.8874 12.4162 74.5167 12.2727 74.0423 12.2727C73.7127 12.2727 73.4173 12.3423 73.1559 12.4815C72.8974 12.6207 72.6928 12.8239 72.5423 13.0909C72.3945 13.358 72.3207 13.6818 72.3207 14.0625ZM81.0639 18.1364C80.473 18.1364 79.9545 17.9957 79.5085 17.7145C79.0653 17.4332 78.7188 17.0398 78.4688 16.5341C78.2216 16.0284 78.098 15.4375 78.098 14.7614C78.098 14.0795 78.2216 13.4844 78.4688 12.9759C78.7188 12.4673 79.0653 12.0724 79.5085 11.7912C79.9545 11.5099 80.473 11.3693 81.0639 11.3693C81.6548 11.3693 82.1719 11.5099 82.6151 11.7912C83.0611 12.0724 83.4077 12.4673 83.6548 12.9759C83.9048 13.4844 84.0298 14.0795 84.0298 14.7614C84.0298 15.4375 83.9048 16.0284 83.6548 16.5341C83.4077 17.0398 83.0611 17.4332 82.6151 17.7145C82.1719 17.9957 81.6548 18.1364 81.0639 18.1364ZM81.0639 17.233C81.5128 17.233 81.8821 17.1179 82.1719 16.8878C82.4616 16.6577 82.6761 16.3551 82.8153 15.9801C82.9545 15.6051 83.0241 15.1989 83.0241 14.7614C83.0241 14.3239 82.9545 13.9162 82.8153 13.5384C82.6761 13.1605 82.4616 12.8551 82.1719 12.6222C81.8821 12.3892 81.5128 12.2727 81.0639 12.2727C80.6151 12.2727 80.2457 12.3892 79.956 12.6222C79.6662 12.8551 79.4517 13.1605 79.3125 13.5384C79.1733 13.9162 79.1037 14.3239 79.1037 14.7614C79.1037 15.1989 79.1733 15.6051 79.3125 15.9801C79.4517 16.3551 79.6662 16.6577 79.956 16.8878C80.2457 17.1179 80.6151 17.233 81.0639 17.233ZM85.565 20.4545V11.4545H86.5366V12.4943H86.6559C86.7298 12.3807 86.832 12.2358 86.9627 12.0597C87.0962 11.8807 87.2866 11.7216 87.5337 11.5824C87.7837 11.4403 88.1218 11.3693 88.5479 11.3693C89.0991 11.3693 89.5849 11.5071 90.0053 11.7827C90.4258 12.0582 90.7539 12.4489 90.9897 12.9545C91.2255 13.4602 91.3434 14.0568 91.3434 14.7443C91.3434 15.4375 91.2255 16.0384 90.9897 16.5469C90.7539 17.0526 90.4272 17.4446 90.0096 17.723C89.592 17.9986 89.1104 18.1364 88.565 18.1364C88.1445 18.1364 87.8079 18.0668 87.555 17.9276C87.3022 17.7855 87.1076 17.625 86.9712 17.446C86.8349 17.2642 86.7298 17.1136 86.6559 16.9943H86.5707V20.4545H85.565ZM86.5536 14.7273C86.5536 15.2216 86.6261 15.6577 86.771 16.0355C86.9158 16.4105 87.1275 16.7045 87.4059 16.9176C87.6843 17.1278 88.0252 17.233 88.4286 17.233C88.8491 17.233 89.1999 17.1222 89.4812 16.9006C89.7653 16.6761 89.9783 16.375 90.1204 15.9972C90.2653 15.6165 90.3377 15.1932 90.3377 14.7273C90.3377 14.267 90.2667 13.8523 90.1246 13.483C89.9854 13.1108 89.7738 12.8168 89.4897 12.6009C89.2085 12.3821 88.8548 12.2727 88.4286 12.2727C88.0195 12.2727 87.6758 12.3764 87.3974 12.5838C87.119 12.7884 86.9087 13.0753 86.7667 13.4446C86.6246 13.8111 86.5536 14.2386 86.5536 14.7273Z" fill="white"/>
<defs>
<linearGradient id="paint0_linear_1_39" x1="16.4031" y1="17.0319" x2="17.7968" y2="12.0259" gradientUnits="userSpaceOnUse">
<stop stop-color="#1724C9"/>
<stop offset="1" stop-color="#1C64F2"/>
</linearGradient>
<linearGradient id="paint1_linear_1_39" x1="19.8012" y1="10.9546" x2="16.0392" y2="7.08859" gradientUnits="userSpaceOnUse">
<stop stop-color="#1C64F2"/>
<stop offset="1" stop-color="#0092FF"/>
</linearGradient>
<linearGradient id="paint2_linear_1_39" x1="14.5771" y1="8.50961" x2="8.72382" y2="8.89104" gradientUnits="userSpaceOnUse">
<stop stop-color="#0092FF"/>
<stop offset="1" stop-color="#45B2FF"/>
</linearGradient>
<linearGradient id="paint3_linear_1_39" x1="14.1812" y1="19.2557" x2="19.4165" y2="17.7989" gradientUnits="userSpaceOnUse">
<stop stop-color="#1C64F2"/>
<stop offset="1" stop-color="#0092FF"/>
</linearGradient>
<linearGradient id="paint4_linear_1_39" x1="10.4072" y1="13.3558" x2="14.0214" y2="17.2178" gradientUnits="userSpaceOnUse">
<stop stop-color="#1724C9"/>
<stop offset="1" stop-color="#1C64F2"/>
</linearGradient>
<linearGradient id="paint5_linear_1_39" x1="18.9299" y1="16.0616" x2="21.4083" y2="10.9095" gradientUnits="userSpaceOnUse">
<stop stop-color="#0092FF"/>
<stop offset="1" stop-color="#45B2FF"/>
</linearGradient>
<linearGradient id="paint6_linear_1_39" x1="9.51431" y1="10.3776" x2="8.19856" y2="15.4775" gradientUnits="userSpaceOnUse">
<stop stop-color="#1C64F2"/>
<stop offset="1" stop-color="#0092FF"/>
</linearGradient>
<linearGradient id="paint7_linear_1_39" x1="16.6296" y1="10.136" x2="11.5552" y2="11.4389" gradientUnits="userSpaceOnUse">
<stop stop-color="#1724C9"/>
<stop offset="1" stop-color="#1C64F2"/>
</linearGradient>
<linearGradient id="paint8_linear_1_39" x1="10.0032" y1="15.9348" x2="13.1128" y2="20.7585" gradientUnits="userSpaceOnUse">
<stop stop-color="#0092FF"/>
<stop offset="1" stop-color="#45B2FF"/>
</linearGradient>
<clipPath id="clip0_1_39">
<rect width="15" height="15" fill="white" transform="translate(7 6)"/>
</clipPath>
</defs>
</svg>
