<svg width="98" height="28" viewBox="0 0 98 28" fill="none" xmlns="http://www.w3.org/2000/svg">
<rect width="97.78" height="28" rx="12.22" fill="#19181D"/>
<path d="M14.3404 16.475C13.9255 16.4051 13.6537 16.3214 13.4792 16.1817C13.3076 16.0491 13.143 15.7838 13.143 15.6441C13.1423 15.5743 13.1359 15.5743 13.0715 15.6441C13 15.7139 13 15.7139 13 15.5743C13 15.5045 13 15.4626 13 15.4626C13 15.4654 14.7896 15.4654 16.936 15.4626L20.8391 15.4577L21.0966 15.2064V14.6129C21.0966 14.0474 21.0916 14.0125 20.9893 13.8994L20.882 13.7807H17.652C14.4319 13.7807 14.4212 13.7807 14.1258 13.662C13.7539 13.5363 13.5178 13.3269 13.4249 13.0197C13.3319 12.7195 13.2961 11.8509 13.3462 11.358C13.4177 10.9182 13.4821 10.6948 13.6895 10.5097C14.09 10.1467 14.2688 10.1327 17.8923 10.1327C20.9285 10.1334 21.2733 10.1327 21.7074 10.2863C22.108 10.412 22.5264 10.8239 22.4613 11.0215V11.1123H15.2065L15.0993 11.217C14.9991 11.3147 14.992 11.3427 14.992 11.8872C14.9927 12.376 14.992 12.4667 15.0778 12.5575L15.1636 12.6622H18.3272C21.0773 12.6622 21.5258 12.6622 21.7639 12.76C22.2789 12.8926 22.4792 13.0392 22.6516 13.4023C22.7445 13.6048 22.7517 13.6606 22.7517 14.5675C22.7517 15.6909 22.7517 15.8515 22.4084 16.128C22.1938 16.3165 21.9363 16.4142 21.4678 16.4771C21.0673 16.5469 14.6415 16.5469 14.2789 16.4743L14.3404 16.475ZM25.7307 16.475C25.7307 16.475 25.7307 15.0598 25.7307 13.3646V10.2828L25.8308 10.1921L25.931 10.0943H34.0912L34.3845 10.1921C34.7564 10.3177 34.9924 10.5202 35.0997 10.7785C35.1713 10.9531 35.1784 11.1137 35.1784 11.9976V13.0155L35.064 13.2459C34.8637 13.6369 34.4918 13.8114 33.7157 13.8812C33.4439 13.8812 32.0106 13.951 30.5257 13.951L27.8249 13.9517L27.5961 14.2171V16.5008H26.6898C26.1892 16.5008 25.7722 16.5008 25.7565 16.5008L25.7307 16.475ZM32.9919 12.8814C33.278 12.7558 33.3281 12.6371 33.3281 11.9996C33.3281 11.5179 33.3209 11.4481 33.2351 11.3434C33.042 11.092 33.1206 11.099 30.3433 11.085H27.7956L27.6812 11.2177C27.5667 11.3503 27.5667 11.3573 27.5667 12.029V12.7062L27.8671 12.9994H30.3355C32.6357 12.9994 32.816 12.9994 32.989 12.9087L32.9919 12.8814ZM42.4053 15.9199C42.0834 15.487 41.9189 15.2985 41.7544 15.1987L41.5398 15.0591H38.7432C37.1854 15.0591 35.9537 15.0591 35.9623 14.9892C35.9695 14.9892 36.1554 14.7379 36.37 14.4796L36.7634 14.0118L38.6788 14.0097C40.5428 14.0083 40.5971 14.0055 40.6744 13.9189C40.8317 13.7444 40.7888 13.6466 39.9341 12.4346C39.4835 11.7923 39.1137 11.2344 39.1123 11.1939C39.1094 11.1102 39.9527 10.0643 40.0221 10.0636C40.0221 10.0636 41.4719 11.8935 44.3121 15.6232L44.9559 16.4638H42.8423L42.406 15.8843L42.4053 15.9199ZM48.9698 16.4785C48.4119 16.4086 48.0193 16.276 47.8533 16.0945C47.7818 16.0246 47.7317 15.9199 47.6817 15.8012L47.5815 15.5918V11.011L47.7103 10.7597C47.8676 10.4525 48.0679 10.3059 48.4699 10.2011C48.7274 10.1313 49.0421 10.1243 52.3379 10.1243H55.9228L56.2375 10.2221C56.4234 10.2919 56.6165 10.3757 56.7095 10.4525C56.874 10.5991 57.0242 10.8644 57.0242 11.025L57.0257 11.1227H53.3736C50.1836 11.1227 49.7044 11.1227 49.5921 11.1926L49.4634 11.2624V15.2399L49.7351 15.4633H56.9856V15.582C56.9856 15.7984 56.7782 16.1335 56.5636 16.2522C56.1345 16.4966 56.1774 16.4896 52.4881 16.5036C50.6242 16.5085 49.0392 16.505 48.9677 16.5036L48.9698 16.4785ZM60.1012 16.4771C60.1012 16.4771 60.1012 15.5164 60.1012 14.3769V12.3061H66.0979V13.2836H62.2477L62.0188 13.521V15.3027L62.262 15.5261H69.0361V16.4757H64.5873C62.1418 16.4757 60.1263 16.4757 60.1105 16.4757L60.1012 16.4771ZM60.0719 10.0999H69.1112V11.1611H60.0719V10.0999ZM14.3826 16.5064C13.8747 16.4296 13.643 16.3528 13.4241 16.1852C13.2811 16.0735 13.0665 15.7035 13.0451 15.5289V15.4242H16.9346C19.0732 15.4186 20.867 15.4242 20.9207 15.4242C21.0995 15.3544 21.1495 15.2008 21.1495 14.5997C21.1495 14.1039 21.1424 14.0341 21.0637 13.9643C20.9922 13.8945 20.935 13.8666 20.8777 13.8596C20.8062 13.8596 19.3707 13.8596 17.6498 13.8596H14.5213L14.2281 13.7618C13.8275 13.6292 13.5844 13.3988 13.4749 13.0539C13.3748 12.7327 13.3605 11.4062 13.4749 11.0508C13.5965 10.5691 13.9184 10.3268 14.5914 10.213C15.1207 10.1222 20.9257 10.1222 21.4364 10.2095C21.8583 10.2793 22.1158 10.391 22.3583 10.6145C22.5943 10.8239 22.6802 10.9985 22.6086 11.1241L22.5371 11.2149H18.9108C15.3417 11.2149 15.2824 11.2163 15.1965 11.2987C15.1178 11.3755 15.1107 11.4383 15.1107 11.927C15.1107 12.4158 15.1178 12.4856 15.2037 12.5833L15.2967 12.695L18.129 12.6957C19.6869 12.6964 21.146 12.6957 21.3734 12.7655C21.9671 12.8354 22.3233 12.9401 22.54 13.1495C22.8332 13.4358 22.8761 13.6103 22.8761 14.6953C22.8761 15.4975 22.8761 15.6602 22.7975 15.8564C22.6401 16.2962 22.2753 16.5196 21.5658 16.6314C21.3226 16.7012 20.2998 16.7012 18.0554 16.7012C15.2137 16.7012 14.8332 16.7019 14.4055 16.6314L14.3826 16.5064ZM25.6592 13.4281L25.657 10.2668L25.8859 10.0573H34.0612L34.3616 10.1551C34.7264 10.2738 35.0053 10.5111 35.1155 10.7904C35.187 10.9649 35.1941 11.1255 35.1941 12.0276C35.1941 13.0316 35.1906 13.0734 35.094 13.2682C34.8866 13.6732 34.4861 13.8687 33.6928 13.9385C33.4425 13.9385 32.0142 14.0083 30.5164 14.0083L27.7935 14.0097L27.7005 14.1214C27.6147 14.2331 27.6075 14.268 27.6218 15.4151V16.5957H25.6463L25.6449 13.4337L25.6592 13.4281ZM32.9654 12.8486C33.2444 12.723 33.2801 12.6182 33.2801 12.0094C33.2801 11.423 33.2801 11.3322 33.0298 11.2128C32.9011 11.143 32.6793 11.136 30.3576 11.129H27.8264L27.7191 11.2337C27.6118 11.3385 27.6118 11.3524 27.6118 12.015V12.6922L27.9265 12.9575H30.3669C32.5327 12.9575 32.8245 12.9575 32.9662 12.8738L32.9654 12.8486ZM42.7887 16.5566C42.7951 16.5566 42.6027 16.2564 42.3595 15.9283C41.9947 15.4326 41.8803 15.3139 41.7015 15.2182L41.4869 15.1065H38.6788C37.1353 15.1065 35.8715 15.1065 35.8715 15.1065C35.8715 15.1065 36.0718 14.8482 36.3149 14.555L36.7584 14.0313H40.6122L40.6837 13.9057C40.7552 13.8009 40.7552 13.7591 40.6837 13.6823C40.6837 13.6124 40.276 13.0748 39.8354 12.4493C39.3991 11.8209 39.0386 11.2854 39.0386 11.254C39.0386 11.254 39.2532 10.9398 39.525 10.6186C39.9899 10.0601 40.0113 10.0392 40.0829 10.116C40.1544 10.1858 41.238 11.6073 42.5562 13.3332C43.8744 15.0598 44.9823 16.5057 45.0166 16.5462C45.0882 16.616 45.0188 16.623 43.9273 16.623C43.2979 16.623 42.7808 16.623 42.7872 16.623L42.7887 16.5566ZM49.291 16.5566C49.2838 16.5566 49.105 16.4868 48.9047 16.4868C48.1673 16.3961 47.8362 16.2145 47.6416 15.7956L47.5415 15.5722V13.3031C47.5415 11.2414 47.5486 11.0138 47.6202 10.819C47.7131 10.5467 47.9563 10.3163 48.2496 10.2046C48.6859 10.0441 49.0614 10.0301 52.5876 10.0441C56.3033 10.0441 56.2031 10.0441 56.6466 10.3163C56.8683 10.449 57.0972 10.819 57.0757 11.0075V11.1123H53.3779C50.3317 11.1123 49.6665 11.1123 49.6078 11.1891C49.5363 11.2589 49.5363 11.4334 49.5363 13.1851V15.1233L49.7795 15.3467H57.0536V15.4654C57.0536 15.9471 56.6673 16.3046 56.0272 16.4051C55.8627 16.4051 55.6195 16.475 55.4908 16.4959C55.2619 16.5657 49.3511 16.5657 49.3124 16.4959L49.291 16.5566ZM60.0404 14.4223L60.0476 12.2698H66.1122V13.3031H62.2162L62.1304 13.4009C62.0517 13.4916 62.0446 13.5754 62.0446 14.3679C62.0446 15.2315 62.0453 15.235 62.1518 15.339L62.2591 15.4438H65.6029C67.4425 15.4438 68.9796 15.4438 69.0182 15.4438C69.0898 15.4438 69.0898 15.5485 69.0898 15.9953L69.0833 16.5189H60.0562V14.3658L60.0404 14.4223ZM60.0476 11.1346C60.0476 11.1346 60.0476 10.8484 60.0404 10.5761V10.0664H69.1448V11.2114H64.6016C60.9002 11.2114 60.0555 11.2114 60.0376 11.1416L60.0476 11.1346ZM14.4126 16.5322C13.7546 16.4484 13.3655 16.2529 13.181 15.9178C13.0093 15.6106 12.9878 15.45 13.0951 15.3942C13.1667 15.3942 14.3933 15.3244 17.0719 15.3244H20.9614L21.033 15.2336C21.1259 15.1009 21.1331 14.0285 21.0387 13.9043C20.9671 13.8275 20.8813 13.8205 17.7907 13.7995C14.3919 13.7995 14.3747 13.7995 13.952 13.5552C13.7231 13.4435 13.6087 13.3178 13.4871 13.0595C13.3941 12.857 13.3869 12.8012 13.3869 11.89V10.9328L13.5157 10.6815C13.6874 10.3603 13.9305 10.1858 14.3954 10.0811C14.703 10.0112 14.9963 10.0043 17.991 10.0043C20.9464 10.0043 21.2761 10.0043 21.5429 10.0811C21.9077 10.1718 22.158 10.2975 22.3504 10.4651C22.5936 10.6885 22.6866 10.9608 22.565 11.0794C22.4935 11.1493 21.6552 11.1493 18.9122 11.1493C16.5133 11.1493 15.2838 11.1493 15.2273 11.2191C15.1486 11.2889 15.1415 11.3168 15.1415 11.8474C15.1415 12.392 15.1486 12.4409 15.2344 12.5107C15.3203 12.5875 15.4562 12.5945 18.526 12.6154C21.2382 12.6154 21.7596 12.6154 21.9435 12.7062C22.3798 12.8389 22.6158 13.0134 22.756 13.3276C22.9133 13.6627 22.9634 14.5934 22.8776 15.3502C22.7989 16.0274 22.5629 16.3053 21.8927 16.4875C21.5565 16.5783 21.5136 16.5783 18.1212 16.5853C16.2329 16.5895 14.565 16.5853 14.414 16.5853L14.4126 16.5322ZM25.6585 13.3778V10.1788L25.8087 10.088C25.9517 9.99727 25.9803 9.99727 29.7311 9.99727C32.0843 9.99727 33.6435 9.99727 33.8681 10.0671C34.3401 10.1369 34.672 10.2486 34.9009 10.4581C35.2085 10.7304 35.2299 10.856 35.2156 12.1155V13.1921L35.0869 13.4016C34.9367 13.639 34.6219 13.8484 34.2908 13.9322C34.1406 14.002 33.2372 14.002 30.9756 14.009C27.9945 14.009 27.8586 14.009 27.7713 14.1137C27.6855 14.1905 27.6783 14.2254 27.6783 15.397V16.5992H25.6792V13.4002L25.6585 13.3778ZM32.8481 12.8402C32.9554 12.8402 33.0842 12.7495 33.1414 12.6867C33.2344 12.5889 33.2415 12.5331 33.2558 12.0862C33.2558 11.4788 33.1843 11.3112 32.9697 11.2009C32.8195 11.1311 32.5763 11.1311 30.314 11.1311H27.8228L27.737 11.2289C27.6654 11.3196 27.6511 11.4034 27.6511 12.0052V12.6825L27.88 12.8919H30.2661C31.8547 12.8919 32.7144 12.8919 32.841 12.8221L32.8481 12.8402ZM42.3659 15.9772C42.0512 15.5443 41.8796 15.3488 41.7365 15.2587L41.5434 15.14L38.7096 15.1393C36.9222 15.1386 35.8679 15.1393 35.8515 15.0695C35.8515 14.9997 36.5309 14.1507 36.7083 13.9978C36.787 13.928 36.9515 13.921 38.6996 13.921C40.5921 13.921 40.6064 13.9203 40.6551 13.8303C40.6551 13.7604 40.7266 13.7116 40.6551 13.6697C40.6551 13.5999 40.2617 13.0693 39.8039 12.4137C39.3462 11.7644 38.9721 11.2058 38.9721 11.1793C38.9721 11.1025 39.932 9.97353 39.9942 9.97353C40.0657 9.97353 44.8915 16.262 45.0295 16.4952C45.0295 16.565 44.8221 16.565 43.9166 16.565L42.7736 16.5629L42.3373 15.9695L42.3659 15.9772ZM48.7631 16.5078C48.0908 16.403 47.7696 16.2006 47.5915 15.7698C47.4986 15.5394 47.4914 15.4905 47.4771 13.484C47.4771 11.3468 47.4835 10.981 47.6416 10.6808C47.8347 10.3177 48.2424 10.1083 48.9169 10.0454C49.4533 9.97563 55.2461 9.97563 55.7396 10.0468C56.1831 10.1167 56.5422 10.2074 56.7467 10.361C56.9112 10.4867 57.1187 10.8567 57.1187 11.0313V11.15H53.4666C49.5914 11.15 49.6171 11.1493 49.5406 11.3455C49.5406 11.4153 49.5406 12.2489 49.5406 13.2696V15.124L49.7838 15.3474H53.423C57.5185 15.3474 57.1623 15.3474 57.0643 15.6825C56.9355 16.1713 56.5922 16.4079 55.8627 16.5141C55.2547 16.6048 49.3718 16.5978 48.7896 16.5113L48.7631 16.5078ZM60.039 14.4V12.2266H66.1229V13.3087H64.1946C62.3085 13.3087 62.2627 13.3101 62.1504 13.3995L62.036 13.4903V15.3013L62.1504 15.3921C62.2649 15.4759 62.2935 15.4828 65.643 15.4828C68.7808 15.4828 69.0247 15.4877 69.0511 15.5527C69.0511 15.6225 69.0511 15.8389 69.0511 16.1042L69.044 16.586H59.9711V14.4118L60.039 14.4ZM60.0476 11.1723C60.0476 11.1723 60.0476 10.8721 60.0404 10.5649V10.0133H69.1663V11.2002H64.613C60.8959 11.2002 60.0562 11.2009 60.0383 11.1304L60.0476 11.1723ZM14.3096 16.5252C13.6301 16.4345 13.2139 16.1622 13.0794 15.7098C13.0079 15.5143 13.0079 15.4514 13.0794 15.4026C13.1509 15.3327 13.673 15.3327 17.034 15.3327H20.9364L21.0294 15.221C21.1081 15.1233 21.1224 15.0535 21.1224 14.5717C21.1224 14.104 21.1224 14.0202 21.0365 13.9294L20.9507 13.8317H17.7421C14.4226 13.8317 14.3525 13.8317 13.9971 13.6222C13.4678 13.3569 13.3033 12.8738 13.3533 11.6897C13.3533 10.9238 13.4535 10.6961 13.7324 10.4322C13.9613 10.2158 14.183 10.125 14.6694 10.0552C14.8697 10.0552 16.0677 9.9854 18.2113 10.0552C21.4328 10.0552 21.4478 10.0552 21.736 10.1599C22.1223 10.2856 22.4155 10.4881 22.57 10.7325C22.6845 10.914 22.6916 10.9419 22.6415 11.0606L22.57 11.1863H18.9573C15.7566 11.1863 15.3324 11.1863 15.2473 11.2561C15.1543 11.3259 15.1472 11.3538 15.1472 11.8635C15.1472 12.2615 15.1472 12.429 15.2187 12.4849C15.2902 12.5617 15.3761 12.5687 18.4445 12.5896C21.7983 12.5896 21.8834 12.5896 22.2961 12.827C22.8039 13.0783 22.9327 13.4484 22.9327 14.6304C22.9327 15.7726 22.8039 16.1287 22.2818 16.3877C21.8741 16.5902 21.8741 16.5902 18.1319 16.6041C16.1964 16.609 14.482 16.6041 14.3218 16.6041L14.3096 16.5252ZM25.6155 13.3946L25.6141 10.2179L25.8859 9.99448H34.0669L34.3602 10.0922C34.7393 10.2179 34.9896 10.4064 35.1305 10.6717C35.2378 10.8812 35.2449 10.8881 35.2449 11.9445C35.2449 13.1272 35.2449 13.2235 34.9731 13.5014C34.7872 13.6969 34.5869 13.8086 34.2164 13.9064C33.9732 13.9762 33.5727 13.9762 30.9012 13.9971C27.8764 13.9971 27.8593 13.9971 27.762 14.1019C27.6619 14.1926 27.6619 14.1996 27.6619 15.3718V16.5525H25.622L25.6198 13.3751L25.6155 13.3946ZM32.9647 12.7872C33.0506 12.7174 33.1435 12.6755 33.1721 12.6336C33.1721 12.5638 33.2437 12.3124 33.2437 11.9982C33.2437 11.3699 33.1721 11.2652 32.9075 11.1856C32.8074 11.1856 31.8454 11.1158 30.3069 11.1158L27.8657 11.1151L27.7727 11.2268C27.6869 11.3315 27.6798 11.3943 27.6798 11.9724V12.6078L27.9372 12.8591H30.382C32.552 12.8591 32.8446 12.8591 32.9862 12.7753L32.9647 12.7872ZM42.3588 15.9855C42.0512 15.5666 41.8653 15.3642 41.7151 15.2643L41.5076 15.1247H38.666C36.3936 15.1247 35.8257 15.1247 35.8257 15.0549C35.8257 14.9851 36.3979 14.2862 36.6411 14.0383L36.7555 13.9196H38.6502C40.0664 13.9196 40.5592 13.9196 40.5979 13.8498C40.7194 13.7311 40.5978 13.5705 39.8039 12.3871C39.1459 11.4481 38.9664 11.1611 38.9978 11.1074C39.098 10.9328 39.9691 9.93514 40.0214 9.93514C40.0214 9.93514 41.1987 11.395 42.5648 13.1796C43.9309 14.9641 45.0689 16.4484 45.0925 16.4778C45.0925 16.5476 44.8922 16.5476 43.9624 16.5476H42.7894L42.3602 15.9611L42.3588 15.9855ZM48.7817 16.5231C47.9971 16.4254 47.6237 16.1252 47.515 15.5164C47.4435 15.3209 47.4435 14.5794 47.4435 13.0881V10.9426L47.5722 10.6913C47.6652 10.5097 47.7582 10.405 47.9156 10.3003C48.3662 10.0001 48.5164 9.99308 52.2886 9.99308C55.8355 9.99448 56.0637 9.99308 56.4821 10.2025C56.5894 10.2724 56.7467 10.3701 56.8325 10.4678C57.0114 10.6703 57.1401 11.0334 57.0686 11.1171C56.9971 11.187 56.3676 11.187 53.3393 11.187C49.8267 11.187 49.6536 11.1905 49.5849 11.2638C49.5134 11.3336 49.5134 11.5361 49.5134 13.2543V15.1673L49.6279 15.258C49.7423 15.3418 49.7638 15.3488 53.3872 15.3488H57.0314L57.0307 15.4884C57.0307 15.7328 56.9377 15.9492 56.766 16.1377C56.5515 16.3612 56.2725 16.4729 55.7668 16.5357C55.3377 16.6055 49.1572 16.6055 48.7417 16.5343L48.7817 16.5231ZM59.9975 14.3951L60.0047 12.2217H63.0659C65.4849 12.2217 66.1329 12.2224 66.1608 12.2915C66.2323 12.3683 66.2323 13.2061 66.1608 13.3017C66.0893 13.3785 66.0464 13.3855 64.1917 13.3855H62.267L62.174 13.4833C62.081 13.581 62.081 13.6159 62.081 14.43C62.081 15.2629 62.0832 15.2811 62.1812 15.3711L62.2813 15.4619H65.648C68.2093 15.4619 69.0275 15.4619 69.0676 15.5317C69.0676 15.5317 69.1391 15.7551 69.1391 16.1042V16.6279H60.0154V14.4537L59.9975 14.3951ZM60.0047 11.1688C60.0047 11.1688 60.0047 10.8686 59.9975 10.5614V10.0098H69.1663V11.1967H64.5909C60.8565 11.1967 60.0125 11.1974 59.9947 11.1269L60.0047 11.1688ZM14.3096 16.5217C13.6301 16.431 13.2139 16.1587 13.0794 15.7063C13.0079 15.5108 13.0079 15.4479 13.0794 15.3991C13.1509 15.3292 13.673 15.3293 17.034 15.3293H20.9364L21.0294 15.2175C21.1081 15.1198 21.1224 15.05 21.1224 14.5682C21.1224 14.1005 21.1224 14.0167 21.0365 13.9259L20.9507 13.8282H17.7421C14.4226 13.8282 14.3525 13.8282 13.9971 13.6187C13.4678 13.3534 13.3033 12.8703 13.3533 11.6862C13.3533 10.9203 13.4535 10.6927 13.7324 10.4287C13.9613 10.2123 14.183 10.1215 14.6694 10.0517C14.8697 10.0517 16.0677 9.98191 18.2113 10.0517C21.4328 10.0517 21.4478 10.0517 21.736 10.1565C22.1223 10.2821 22.4155 10.4846 22.57 10.729C22.6845 10.9105 22.6916 10.9384 22.6415 11.0571L22.57 11.1828H18.9573C15.7566 11.1828 15.3324 11.1828 15.2473 11.2526C15.1543 11.3224 15.1472 11.3503 15.1472 11.86C15.1472 12.258 15.1472 12.4255 15.2187 12.4814C15.2902 12.5582 15.3761 12.5652 18.4445 12.5861C21.7983 12.5861 21.8834 12.5861 22.2961 12.8235C22.8039 13.0748 22.9327 13.4449 22.9327 14.6269C22.9327 15.7691 22.8039 16.1252 22.2818 16.3842C21.8741 16.5867 21.8741 16.5867 18.1319 16.6006C16.1964 16.6055 14.482 16.6006 14.3218 16.6006L14.3096 16.5217ZM25.6155 13.3911L25.6141 10.2144L25.8859 9.99099H34.0669L34.3602 10.0887C34.7393 10.2144 34.9896 10.4029 35.1305 10.6682C35.2378 10.8777 35.2449 10.8847 35.2449 11.941C35.2449 13.1237 35.2449 13.2201 34.9731 13.4979C34.7872 13.6934 34.5869 13.8051 34.2164 13.9029C33.9732 13.9727 33.5727 13.9727 30.9012 13.9936C27.8764 13.9936 27.8593 13.9936 27.762 14.0984C27.6619 14.1891 27.6619 14.1961 27.6619 15.3683V16.549H25.622L25.6198 13.3716L25.6155 13.3911ZM32.9647 12.7837C33.0506 12.7139 33.1435 12.672 33.1721 12.6301C33.1721 12.5603 33.2437 12.3089 33.2437 11.9948C33.2437 11.3664 33.1721 11.2617 32.9075 11.1821C32.8074 11.1821 31.8454 11.1123 30.3069 11.1123L27.8657 11.1116L27.7727 11.2233C27.6869 11.328 27.6798 11.3908 27.6798 11.9689V12.6043L27.9372 12.8556H30.382C32.552 12.8556 32.8446 12.8556 32.9862 12.7718L32.9647 12.7837ZM42.3588 15.982C42.0512 15.5631 41.8653 15.3607 41.7151 15.2608L41.5076 15.1212H38.666C36.3936 15.1212 35.8257 15.1212 35.8257 15.0514C35.8257 14.9816 36.3979 14.2827 36.6411 14.0348L36.7555 13.9161H38.6502C40.0664 13.9161 40.5592 13.9161 40.5979 13.8463C40.7194 13.7276 40.5978 13.5671 39.8039 12.3836C39.1459 11.4446 38.9664 11.1576 38.9978 11.1039C39.098 10.9293 39.9691 9.93164 40.0214 9.93164C40.0214 9.93164 41.1987 11.3915 42.5648 13.1761C43.9309 14.9606 45.0689 16.4449 45.0925 16.4743C45.0925 16.5441 44.8922 16.5441 43.9624 16.5441H42.7894L42.3602 15.9576L42.3588 15.982ZM48.7817 16.5196C47.9971 16.4219 47.6237 16.1217 47.515 15.5129C47.4435 15.3174 47.4435 14.5759 47.4435 13.0846V10.9391L47.5722 10.6878C47.6652 10.5062 47.7582 10.4015 47.9156 10.2968C48.3662 9.99658 48.5164 9.98959 52.2886 9.98959C55.8355 9.99099 56.0637 9.98959 56.4821 10.199C56.5894 10.2689 56.7467 10.3666 56.8325 10.4644C57.0114 10.6668 57.1401 11.0299 57.0686 11.1137C56.9971 11.1835 56.3676 11.1835 53.3393 11.1835C49.8267 11.1835 49.6536 11.187 49.5849 11.2603C49.5134 11.3301 49.5134 11.5326 49.5134 13.2508V15.1638L49.6279 15.2545C49.7423 15.3383 49.7638 15.3453 53.3872 15.3453H57.0314L57.0307 15.4849C57.0307 15.7293 56.9377 15.9457 56.766 16.1342C56.5515 16.3577 56.2725 16.4694 55.7668 16.5322C55.3377 16.602 49.1572 16.602 48.7417 16.5308L48.7817 16.5196ZM59.9975 14.3916L60.0047 12.2182H63.0659C65.4849 12.2182 66.1329 12.2189 66.1608 12.288C66.2323 12.3648 66.2323 13.2026 66.1608 13.2983C66.0893 13.3751 66.0464 13.382 64.1917 13.382H62.267L62.174 13.4798C62.081 13.5775 62.081 13.6124 62.081 14.4265C62.081 15.2594 62.0832 15.2776 62.1812 15.3676L62.2813 15.4584H65.648C68.2093 15.4584 69.0275 15.4584 69.0676 15.5282C69.0676 15.5282 69.1391 15.7516 69.1391 16.1007V16.6244H60.0154V14.4502L59.9975 14.3916ZM60.0047 11.1653C60.0047 11.1653 60.0047 10.8651 59.9975 10.5579V10.0063H69.1663V11.1933H64.5909C60.8565 11.1933 60.0125 11.1939 59.9947 11.1234L60.0047 11.1653ZM14.2739 16.5224C13.5572 16.4317 13.1817 16.1594 13.0529 15.6567C12.9814 15.4612 12.9814 15.4472 13.1245 15.3704C13.2174 15.2936 13.4034 15.2936 17.1055 15.2936C20.8999 15.2936 20.9893 15.2915 21.033 15.2099C21.033 15.14 21.1045 14.8608 21.1045 14.5326C21.1045 14.002 21.0973 13.9322 21.0258 13.8973C20.9543 13.8973 19.7212 13.8275 17.8215 13.8275C14.354 13.8275 14.3282 13.8275 13.9034 13.5273C13.4599 13.234 13.3884 13.0176 13.3884 11.8872C13.3884 10.8861 13.4599 10.6759 13.7102 10.4064C13.9105 10.2109 14.1036 10.1202 14.5085 10.0294C14.7874 9.95957 15.1951 9.95957 18.016 9.95957C20.9729 9.95818 21.2347 9.96376 21.5565 10.0364C21.9857 10.1341 22.2646 10.2807 22.4921 10.5181C22.6852 10.7276 22.7424 10.8742 22.6709 11.0278L22.5993 11.1325H19.016C16.7937 11.1325 15.3911 11.1325 15.3217 11.2023L15.2073 11.2721V11.8586C15.2073 12.3753 15.2073 12.459 15.2859 12.5149C15.3575 12.5847 15.6293 12.5847 18.3243 12.5847C20.2004 12.5847 21.4063 12.5847 21.6202 12.6545C22.271 12.7453 22.633 12.9547 22.8275 13.3688C22.9062 13.5433 22.9205 13.655 22.9348 14.4831C22.9419 15.0695 22.9312 15.4877 22.9348 15.6385C22.8132 16.1971 22.3912 16.5155 21.6524 16.595C21.2018 16.6649 14.7016 16.6649 14.3304 16.5957L14.2739 16.5224ZM25.6148 13.3855V10.206L25.715 10.1153C25.7865 10.0454 25.858 10.0105 25.9152 9.98959C26.044 9.91978 32.8403 9.91978 33.5806 9.99169C34.471 10.0615 34.9045 10.243 35.1491 10.6906C35.2349 10.8511 35.2421 10.9279 35.2564 11.8928C35.2564 13.0448 35.2564 13.2431 35.006 13.5224C34.9345 13.6062 34.77 13.7318 34.6413 13.7877C34.1835 14.0041 33.9761 14.0181 30.8125 14.0181C28.2484 14.0195 27.8886 14.0181 27.8035 14.0879C27.7105 14.1577 27.7034 14.1647 27.7034 15.2936C27.7034 15.922 27.7034 16.4631 27.7034 16.4994C27.7034 16.5692 27.546 16.5692 26.6598 16.5692H25.6442V13.3897L25.6148 13.3855ZM32.8796 12.7851C33.1657 12.7083 33.2158 12.5966 33.2158 12.0206C33.2158 11.4411 33.2158 11.3364 32.9869 11.2303C32.8582 11.1604 32.6579 11.1535 30.3741 11.1395C28.1883 11.1395 27.8915 11.1346 27.7992 11.2093C27.6991 11.2791 27.6991 11.2861 27.6991 11.9745C27.6991 12.6168 27.7062 12.6804 27.7849 12.7586C27.8707 12.8423 27.9279 12.8423 30.2947 12.8423C31.821 12.8423 32.7759 12.8423 32.8775 12.7725L32.8796 12.7851ZM42.4847 16.1699C42.3202 15.9534 42.1199 15.6811 42.0341 15.5624C41.9339 15.4298 41.7909 15.3041 41.6621 15.2343L41.4476 15.1226H38.613C36.0746 15.1226 35.7821 15.1156 35.805 15.0528C35.805 14.983 36.0267 14.7526 36.2699 14.4593L36.7133 13.9287H38.6159C40.2889 13.9287 40.5278 13.9287 40.5878 13.8589C40.6594 13.7891 40.6594 13.7611 40.6594 13.7193C40.6594 13.6494 40.2874 13.1118 39.8282 12.4604C39.3705 11.8111 38.9885 11.2456 38.9792 11.2107C38.9792 11.1199 39.9577 9.93095 40.0428 9.947C40.1143 9.947 45.1354 16.4833 45.1354 16.5406C45.1354 16.5406 44.6061 16.5406 43.9617 16.5406H42.7887L42.4954 16.1496L42.4847 16.1699ZM48.7531 16.5189C48.1666 16.4491 47.7911 16.2327 47.5965 15.8487L47.4964 15.6462V13.3625C47.4964 10.7716 47.4964 10.7611 47.7968 10.4308C47.9971 10.2214 48.2617 10.0957 48.6852 10.0189C49.1143 9.93514 55.5387 9.93513 55.9843 10.0175C56.6208 10.1292 56.9978 10.4085 57.1372 10.8616C57.2374 11.1967 57.5735 11.1688 53.4537 11.1688C50.1886 11.1688 49.7566 11.1688 49.6708 11.2386L49.5778 11.3084V15.1065L49.7781 15.2881H53.3851C56.299 15.2881 57.0071 15.2881 57.07 15.3579C57.1415 15.4277 57.1415 15.4347 57.07 15.6511C56.9842 16.07 56.7338 16.3144 56.2418 16.4729C56.02 16.5427 55.7482 16.5497 52.5053 16.5566C50.5813 16.5608 48.889 16.5511 48.746 16.5566L48.7531 16.5189ZM59.9854 14.3972C59.9854 12.3034 59.9882 12.2342 60.0712 12.1916C60.1999 12.1218 66.0314 12.1218 66.1286 12.1916C66.2002 12.2615 66.2002 12.3103 66.2002 12.7711V13.3017H64.2361C62.4251 13.3017 62.2656 13.3017 62.194 13.3995C62.1225 13.4693 62.1154 13.5671 62.1154 14.342C62.1154 15.117 62.1225 15.2161 62.194 15.2839C62.2656 15.3537 62.4801 15.3607 65.6916 15.3816H69.1126V16.5127H59.9839V14.3504L59.9854 14.3972ZM60.0376 11.2086C59.966 11.1388 59.9661 10.9782 59.9661 10.5942C59.9661 10.0845 59.9732 10.0287 60.0519 9.9868C60.1449 9.91698 68.986 9.91698 69.1119 9.9868C69.2121 10.0566 69.2121 11.2121 69.1119 11.2505C69.1119 11.2505 67.0241 11.2505 64.5572 11.2505C61.1269 11.2505 60.0598 11.2505 60.0197 11.1807L60.0376 11.2086ZM14.138 16.5217C13.7875 16.4519 13.4013 16.3123 13.2503 16.1168C13.1788 16.04 13.1073 15.8655 13.0715 15.7328C13 15.5373 13 15.4745 13.0715 15.3907C13.0715 15.3209 13.1574 15.279 13.2003 15.272C13.2718 15.272 14.9805 15.265 17.0719 15.2741C20.4279 15.2741 20.8842 15.2741 20.9607 15.2043C21.0394 15.1345 21.0465 15.0926 21.0465 14.541C21.0465 14.0523 21.0465 13.9336 20.975 13.9057C20.975 13.9057 19.8213 13.8359 18.1727 13.8359C16.6671 13.8352 15.2173 13.8358 14.9519 13.766C14.2653 13.6962 13.9334 13.5985 13.673 13.3471C13.3798 13.0609 13.3226 12.8514 13.294 12.0297C13.2224 10.5684 13.4942 10.1306 14.4663 9.93444C14.9526 9.83669 20.96 9.83669 21.4786 9.93025C21.9292 10.014 22.2303 10.1676 22.4713 10.426C22.7002 10.6773 22.7503 10.8169 22.6644 10.9705L22.5929 11.0822H18.9316C15.7401 11.0822 15.2659 11.0822 15.2301 11.166C15.2301 11.166 15.1586 11.4523 15.1586 11.7246C15.1579 12.1295 15.1586 12.2342 15.2373 12.3041C15.316 12.3948 15.3303 12.3948 18.4638 12.4088C21.3005 12.4088 21.6395 12.4088 21.8712 12.4995C22.472 12.6671 22.7481 12.9254 22.8776 13.4204C22.9777 13.8044 22.9491 15.383 22.8061 15.6853C22.6988 15.9646 22.427 16.2229 22.1051 16.3486L21.8476 16.4463L18.1112 16.4533C16.0555 16.4568 14.2445 16.4463 14.0865 16.4533L14.138 16.5217ZM25.6005 16.5217C25.6005 16.5217 25.6005 15.0737 25.6005 13.3381V10.183L25.8866 9.93164L29.8856 9.93234C34.1513 9.93304 34.2028 9.93583 34.652 10.1418C34.9095 10.2605 35.1097 10.456 35.2242 10.6934C35.31 10.8749 35.3172 10.9587 35.3172 11.9871V13.0895L35.2027 13.299C35.0168 13.6411 34.7879 13.7947 34.2751 13.9413C34.039 14.0111 33.71 14.0181 30.9513 14.032C27.9079 14.032 27.8872 14.032 27.8114 14.1368C27.7398 14.2136 27.7327 14.3392 27.7327 15.3872V16.549H26.6963C26.1241 16.549 25.6484 16.549 25.6327 16.549L25.6005 16.5217ZM32.934 12.7153C33.0126 12.7153 33.1056 12.6175 33.1271 12.5687C33.1271 12.4988 33.1986 12.2545 33.1986 11.9473C33.1986 11.3468 33.1986 11.291 32.8624 11.2051C32.7552 11.2051 31.8525 11.1353 30.2968 11.1353C27.9537 11.1353 27.8936 11.1374 27.8085 11.2191C27.7298 11.2959 27.7227 11.3587 27.7227 11.9103C27.7227 12.4618 27.7227 12.5317 27.8157 12.6315L27.9086 12.7432H30.3619C32.3789 12.7432 32.841 12.7432 32.9619 12.6734L32.934 12.7153ZM42.7243 16.4973C42.7243 16.4973 42.4811 16.211 42.2665 15.9178C42.0519 15.6316 41.8016 15.3453 41.7086 15.2825L41.537 15.1708H38.6467C36.011 15.1708 35.7578 15.1708 35.7628 15.08C35.7656 15.0102 35.9773 14.7588 36.2348 14.4516L36.6997 13.8931H40.5835L40.5828 13.7674C40.5828 13.6697 40.3683 13.3415 39.7424 12.4402C39.2775 11.7839 38.912 11.2163 38.9235 11.187C38.995 11.0613 39.9627 9.92885 40.0221 9.92885C40.0936 9.92885 45.1239 16.4624 45.1239 16.5455C45.1239 16.6153 42.813 16.6153 42.7229 16.5455L42.7243 16.4973ZM48.6201 16.4973C48.0979 16.4275 47.7468 16.211 47.5501 15.7977C47.4499 15.5883 47.4499 15.5813 47.4356 13.359C47.4356 10.7276 47.4356 10.7318 47.8004 10.3617C47.9864 10.1802 48.0793 10.1243 48.344 10.0406L48.6658 9.94282H55.9664L56.2739 10.0406C56.4456 10.1104 56.6602 10.1872 56.7532 10.257C57.0321 10.4525 57.2824 10.995 57.1609 11.1367C57.0893 11.2065 56.603 11.2065 53.4394 11.2065C50.9925 11.2065 49.7409 11.2065 49.6851 11.2763C49.6064 11.3462 49.5993 11.388 49.5993 13.2201V15.1198L49.7995 15.3013H53.4537C57.5492 15.3013 57.1966 15.3013 57.1151 15.6225C56.9863 16.195 56.643 16.4596 55.9499 16.5308C55.5065 16.6006 49.0642 16.6006 48.6186 16.528L48.6201 16.4973ZM59.9711 16.4973C59.9711 16.4973 59.9711 12.274 59.9682 12.1812C59.9682 12.1114 60.3044 12.1114 63.0931 12.1114C65.8769 12.1114 66.1923 12.1183 66.2159 12.1812C66.2874 12.2929 66.2159 13.1754 66.2159 13.2626C66.1444 13.3394 66.1014 13.3464 64.2397 13.3464C62.3657 13.3464 62.3049 13.3492 62.2205 13.4302C62.1418 13.507 62.1347 13.5698 62.1347 14.342C62.1347 15.1128 62.1411 15.175 62.2205 15.2538C62.3063 15.3376 62.3636 15.3376 65.6909 15.3376C68.5283 15.3376 69.084 15.3376 69.1255 15.4074C69.1255 15.4773 69.197 15.6378 69.1255 15.9939V16.5175H64.5594C62.0489 16.5231 59.9804 16.5155 59.9639 16.5175L59.9711 16.4973ZM59.9682 11.1562C59.8967 11.0585 59.9682 10.0231 59.9753 9.96097C59.9753 9.89115 60.9595 9.89115 64.6137 9.89115H69.2171V11.1618H64.6044C60.4267 11.1618 59.9897 11.166 59.9661 11.092L59.9682 11.1562Z" fill="white"/>
<path d="M85.137 9.8606C82.9604 10.7898 78.3882 12.0745 73.9433 20.9299C75.6101 14.8418 79.6726 10.4141 80.7839 9.8606H85.137Z" fill="white"/>
<path d="M76.0576 9.8606H72.3264L76.9905 12.9699L77.9233 11.7262L76.0576 9.8606Z" fill="white"/>
</svg>
