<svg width="98" height="28" viewBox="0 0 98 28" fill="none" xmlns="http://www.w3.org/2000/svg">
<g clip-path="url(#clip0_518_280)">
<rect width="97.7778" height="28" rx="12.2222" fill="#151A20"/>
<path d="M50.2747 10.9421V12.047H48.456V17.767H47.0871V12.047H45.2685V10.9421H50.2747ZM57.4041 10.9421L54.901 17.767H53.2388L50.7357 10.9421H52.2024L54.0797 16.3688L55.9472 10.9421H57.4041ZM58.9191 11.7048C58.6779 11.7048 58.4758 11.6298 58.3129 11.4799C58.1564 11.3235 58.0782 11.1312 58.0782 10.903C58.0782 10.6749 58.1564 10.4858 58.3129 10.3359C58.4758 10.1795 58.6779 10.1013 58.9191 10.1013C59.1603 10.1013 59.3591 10.1795 59.5155 10.3359C59.6785 10.4858 59.76 10.6749 59.76 10.903C59.76 11.1312 59.6785 11.3235 59.5155 11.4799C59.3591 11.6298 59.1603 11.7048 58.9191 11.7048ZM59.5937 12.3501V17.767H58.2249V12.3501H59.5937ZM67.6733 12.2719C68.3382 12.2719 68.8727 12.4773 69.2769 12.8879C69.6875 13.2921 69.8929 13.8592 69.8929 14.5893V17.767H68.524V14.775C68.524 14.3513 68.4164 14.0287 68.2013 13.807C67.9862 13.5789 67.6929 13.4648 67.3213 13.4648C66.9498 13.4648 66.6532 13.5789 66.4315 13.807C66.2164 14.0287 66.1089 14.3513 66.1089 14.775V17.767H64.74V14.775C64.74 14.3513 64.6324 14.0287 64.4173 13.807C64.2022 13.5789 63.9089 13.4648 63.5373 13.4648C63.1592 13.4648 62.8594 13.5789 62.6378 13.807C62.4226 14.0287 62.3151 14.3513 62.3151 14.775V17.767H60.9462V12.3501H62.3151V13.0053C62.4911 12.7771 62.716 12.5978 62.9898 12.4675C63.2701 12.3371 63.5764 12.2719 63.9089 12.2719C64.3326 12.2719 64.7106 12.3632 65.0431 12.5457C65.3755 12.7217 65.633 12.9759 65.8155 13.3084C65.9915 12.9955 66.2458 12.7445 66.5782 12.5555C66.9172 12.3664 67.2822 12.2719 67.6733 12.2719ZM73.5972 17.855C73.0757 17.855 72.6064 17.741 72.1892 17.5128C71.772 17.2781 71.4428 16.949 71.2016 16.5253C70.967 16.1015 70.8496 15.6127 70.8496 15.0586C70.8496 14.5045 70.9702 14.0156 71.2114 13.5919C71.4591 13.1682 71.7948 12.8423 72.2185 12.6141C72.6422 12.3795 73.1148 12.2621 73.6363 12.2621C74.1578 12.2621 74.6304 12.3795 75.0541 12.6141C75.4778 12.8423 75.8102 13.1682 76.0514 13.5919C76.2991 14.0156 76.423 14.5045 76.423 15.0586C76.423 15.6127 76.2959 16.1015 76.0416 16.5253C75.7939 16.949 75.455 17.2781 75.0248 17.5128C74.6011 17.741 74.1252 17.855 73.5972 17.855ZM73.5972 16.6621C73.8449 16.6621 74.0763 16.6035 74.2914 16.4861C74.5131 16.3623 74.6891 16.1798 74.8194 15.9386C74.9498 15.6974 75.015 15.4041 75.015 15.0586C75.015 14.5436 74.8781 14.1493 74.6043 13.8755C74.3371 13.5952 74.0079 13.455 73.6168 13.455C73.2256 13.455 72.8965 13.5952 72.6292 13.8755C72.3685 14.1493 72.2381 14.5436 72.2381 15.0586C72.2381 15.5735 72.3652 15.9712 72.6194 16.2515C72.8802 16.5253 73.2061 16.6621 73.5972 16.6621Z" fill="white"/>
<g filter="url(#filter0_d_518_280)">
<path d="M23.4249 12.3841L27.6517 22.0287L28.5734 22.6651L29.6539 23.0078L31.1158 23.3995L32.8319 22.6651L33.976 22.0287L29.6539 12.3841L23.4249 12.3841Z" fill="url(#paint0_linear_518_280)"/>
</g>
<g filter="url(#filter1_d_518_280)">
<path d="M38.5937 15.6087L34.3669 5.94152L33.4453 5.30359L32.3648 4.96008L30.9029 4.5675L29.1868 5.30359L28.0427 5.94152L32.3648 15.6087L38.5937 15.6087Z" fill="url(#paint1_linear_518_280)"/>
</g>
<path d="M34.202 21.9024L40.7639 12.4541L34.202 12.3841L29.4586 21.9024C29.1255 22.8762 28.0835 22.3082 27.6041 21.9024C29.6528 25.6416 32.8563 23.4604 34.202 21.9024Z" fill="#FFC30D"/>
<path d="M27.8424 6.0646L21.2806 15.5129L27.8424 15.583L32.5859 6.0646C32.9189 5.09085 33.961 5.65887 34.4404 6.0646C32.3916 2.32541 29.1881 4.5066 27.8424 6.0646Z" fill="#FFC30D"/>
</g>
<defs>
<filter id="filter0_d_518_280" x="13.6471" y="4.56181" width="30.1066" height="30.571" filterUnits="userSpaceOnUse" color-interpolation-filters="sRGB">
<feFlood flood-opacity="0" result="BackgroundImageFix"/>
<feColorMatrix in="SourceAlpha" type="matrix" values="0 0 0 0 0 0 0 0 0 0 0 0 0 0 0 0 0 0 127 0" result="hardAlpha"/>
<feOffset dy="1.95556"/>
<feGaussianBlur stdDeviation="4.88889"/>
<feComposite in2="hardAlpha" operator="out"/>
<feColorMatrix type="matrix" values="0 0 0 0 0 0 0 0 0 0 0 0 0 0 0 0 0 0 0.25 0"/>
<feBlend mode="normal" in2="BackgroundImageFix" result="effect1_dropShadow_518_280"/>
<feBlend mode="normal" in="SourceGraphic" in2="effect1_dropShadow_518_280" result="shape"/>
</filter>
<filter id="filter1_d_518_280" x="18.2649" y="-3.25472" width="30.1066" height="30.5968" filterUnits="userSpaceOnUse" color-interpolation-filters="sRGB">
<feFlood flood-opacity="0" result="BackgroundImageFix"/>
<feColorMatrix in="SourceAlpha" type="matrix" values="0 0 0 0 0 0 0 0 0 0 0 0 0 0 0 0 0 0 127 0" result="hardAlpha"/>
<feOffset dy="1.95556"/>
<feGaussianBlur stdDeviation="4.88889"/>
<feComposite in2="hardAlpha" operator="out"/>
<feColorMatrix type="matrix" values="0 0 0 0 0 0 0 0 0 0 0 0 0 0 0 0 0 0 0.25 0"/>
<feBlend mode="normal" in2="BackgroundImageFix" result="effect1_dropShadow_518_280"/>
<feBlend mode="normal" in="SourceGraphic" in2="effect1_dropShadow_518_280" result="shape"/>
</filter>
<linearGradient id="paint0_linear_518_280" x1="24.5181" y1="12.3841" x2="29.5007" y2="21.7418" gradientUnits="userSpaceOnUse">
<stop/>
<stop offset="0.494792" stop-color="#3D3B16"/>
<stop offset="1" stop-color="#FFC30D"/>
</linearGradient>
<linearGradient id="paint1_linear_518_280" x1="37.5006" y1="15.6087" x2="32.4997" y2="6.2388" gradientUnits="userSpaceOnUse">
<stop stop-color="#0C0C0C"/>
<stop offset="0.494792" stop-color="#3D3B16"/>
<stop offset="1" stop-color="#FFC30D"/>
</linearGradient>
<clipPath id="clip0_518_280">
<rect width="97.7778" height="28" rx="12.2222" fill="white"/>
</clipPath>
</defs>
</svg>
